<svg width="524" height="520" viewBox="0 0 524 520" fill="none" xmlns="http://www.w3.org/2000/svg">
<g filter="url(#filter0_ddd_81_549)">
<rect x="11" width="502" height="497" rx="16" fill="white"/>
<rect x="11.75" y="0.75" width="500.5" height="495.5" rx="15.25" stroke="black" stroke-opacity="0.1" stroke-width="1.5"/>
<path d="M59.0341 52.7727C59.0341 54.7159 58.6563 56.3551 57.9006 57.6903C57.1449 59.0199 56.125 60.0284 54.8409 60.7159C53.5568 61.3977 52.125 61.7386 50.5455 61.7386C48.9545 61.7386 47.517 61.3949 46.233 60.7074C44.9545 60.0142 43.9375 59.0028 43.1818 57.6733C42.4318 56.3381 42.0568 54.7045 42.0568 52.7727C42.0568 50.8295 42.4318 49.1932 43.1818 47.8636C43.9375 46.5284 44.9545 45.5199 46.233 44.8381C47.517 44.1506 48.9545 43.8068 50.5455 43.8068C52.125 43.8068 53.5568 44.1506 54.8409 44.8381C56.125 45.5199 57.1449 46.5284 57.9006 47.8636C58.6563 49.1932 59.0341 50.8295 59.0341 52.7727ZM54.1591 52.7727C54.1591 51.7273 54.0199 50.8466 53.7415 50.1307C53.4688 49.4091 53.0625 48.8636 52.5227 48.4943C51.9886 48.1193 51.3295 47.9318 50.5455 47.9318C49.7614 47.9318 49.0994 48.1193 48.5597 48.4943C48.0256 48.8636 47.6193 49.4091 47.3409 50.1307C47.0682 50.8466 46.9318 51.7273 46.9318 52.7727C46.9318 53.8182 47.0682 54.7017 47.3409 55.4233C47.6193 56.1392 48.0256 56.6847 48.5597 57.0597C49.0994 57.429 49.7614 57.6136 50.5455 57.6136C51.3295 57.6136 51.9886 57.429 52.5227 57.0597C53.0625 56.6847 53.4688 56.1392 53.7415 55.4233C54.0199 54.7017 54.1591 53.8182 54.1591 52.7727ZM65.522 58.3977L65.5561 52.8068H66.1697L69.3402 48.4091H74.6243L69.3061 55.2614H67.9766L65.522 58.3977ZM61.2947 61.5V44.0455H65.9993V61.5H61.2947ZM69.3743 61.5L66.3743 56.3182L69.4425 52.9773L74.7607 61.5H69.3743ZM83.6562 48.4091V51.8182H75.0312V48.4091H83.6562ZM76.7017 45.2727H81.4062V57.2898C81.4062 57.4716 81.4375 57.625 81.5 57.75C81.5625 57.8693 81.6591 57.9602 81.7898 58.0227C81.9205 58.0795 82.0881 58.108 82.2926 58.108C82.4347 58.108 82.5994 58.0909 82.7869 58.0568C82.9801 58.0227 83.1222 57.9943 83.2131 57.9716L83.8949 61.2784C83.6847 61.3409 83.3835 61.4176 82.9915 61.5085C82.6051 61.5994 82.1449 61.6591 81.6108 61.6875C80.5313 61.7443 79.625 61.6335 78.892 61.3551C78.1591 61.071 77.608 60.625 77.2386 60.017C76.8693 59.4091 76.6903 58.6477 76.7017 57.733V45.2727ZM91.7422 61.7386C90.3217 61.7386 89.1058 61.4574 88.0945 60.8949C87.0831 60.3267 86.3075 59.5369 85.7678 58.5256C85.228 57.5085 84.9581 56.3295 84.9581 54.9886C84.9581 53.6477 85.228 52.4716 85.7678 51.4602C86.3075 50.4432 87.0831 49.6534 88.0945 49.0909C89.1058 48.5227 90.3217 48.2386 91.7422 48.2386C93.1626 48.2386 94.3786 48.5227 95.3899 49.0909C96.4013 49.6534 97.1768 50.4432 97.7166 51.4602C98.2564 52.4716 98.5263 53.6477 98.5263 54.9886C98.5263 56.3295 98.2564 57.5085 97.7166 58.5256C97.1768 59.5369 96.4013 60.3267 95.3899 60.8949C94.3786 61.4574 93.1626 61.7386 91.7422 61.7386ZM91.7763 58.2614C92.174 58.2614 92.5178 58.1278 92.8075 57.8608C93.0973 57.5937 93.3217 57.2131 93.4808 56.7188C93.6399 56.2244 93.7195 55.6364 93.7195 54.9545C93.7195 54.267 93.6399 53.679 93.4808 53.1903C93.3217 52.696 93.0973 52.3153 92.8075 52.0483C92.5178 51.7812 92.174 51.6477 91.7763 51.6477C91.3558 51.6477 90.995 51.7812 90.6939 52.0483C90.3928 52.3153 90.1626 52.696 90.0036 53.1903C89.8445 53.679 89.7649 54.267 89.7649 54.9545C89.7649 55.6364 89.8445 56.2244 90.0036 56.7188C90.1626 57.2131 90.3928 57.5937 90.6939 57.8608C90.995 58.1278 91.3558 58.2614 91.7763 58.2614ZM105.183 61.5V58.0909L111.694 52.7045C112.126 52.3466 112.495 52.0114 112.802 51.6989C113.114 51.3807 113.353 51.054 113.518 50.7188C113.688 50.3835 113.773 50.0114 113.773 49.6023C113.773 49.1534 113.677 48.7699 113.484 48.4517C113.296 48.1335 113.035 47.8892 112.7 47.7188C112.364 47.5426 111.978 47.4545 111.54 47.4545C111.103 47.4545 110.717 47.5426 110.381 47.7188C110.052 47.8949 109.796 48.1534 109.614 48.4943C109.433 48.8352 109.342 49.25 109.342 49.7386H104.842C104.842 48.5114 105.117 47.4545 105.668 46.5682C106.219 45.6818 106.998 45 108.004 44.5227C109.009 44.0455 110.188 43.8068 111.54 43.8068C112.938 43.8068 114.148 44.0312 115.171 44.4801C116.2 44.9233 116.992 45.5483 117.549 46.3551C118.112 47.1619 118.393 48.108 118.393 49.1932C118.393 49.8636 118.254 50.5312 117.975 51.196C117.697 51.8551 117.197 52.5852 116.475 53.3864C115.754 54.1875 114.728 55.142 113.398 56.25L111.762 57.6136V57.7159H118.58V61.5H105.183ZM128.3 61.9773C126.715 61.9716 125.346 61.6051 124.192 60.8778C123.039 60.1506 122.15 59.1023 121.525 57.733C120.9 56.3636 120.59 54.7216 120.596 52.8068C120.602 50.8864 120.914 49.2557 121.533 47.9148C122.158 46.5739 123.045 45.554 124.192 44.8551C125.346 44.1562 126.715 43.8068 128.3 43.8068C129.886 43.8068 131.255 44.1591 132.408 44.8636C133.562 45.5625 134.451 46.5824 135.076 47.9233C135.701 49.2642 136.011 50.892 136.005 52.8068C136.005 54.733 135.692 56.3807 135.067 57.75C134.442 59.1193 133.553 60.1676 132.4 60.8949C131.252 61.6165 129.886 61.9773 128.3 61.9773ZM128.3 58.125C129.119 58.125 129.789 57.6989 130.312 56.8466C130.84 55.9886 131.102 54.642 131.096 52.8068C131.096 51.608 130.977 50.6278 130.738 49.8665C130.499 49.1051 130.17 48.5426 129.749 48.179C129.329 47.8097 128.846 47.625 128.3 47.625C127.482 47.625 126.815 48.0398 126.298 48.8693C125.781 49.6989 125.516 51.0114 125.505 52.8068C125.499 54.0284 125.616 55.0341 125.854 55.8239C126.093 56.608 126.423 57.1875 126.843 57.5625C127.269 57.9375 127.755 58.125 128.3 58.125ZM138.229 61.5V58.0909L144.741 52.7045C145.173 52.3466 145.542 52.0114 145.849 51.6989C146.161 51.3807 146.4 51.054 146.565 50.7188C146.735 50.3835 146.82 50.0114 146.82 49.6023C146.82 49.1534 146.724 48.7699 146.531 48.4517C146.343 48.1335 146.082 47.8892 145.746 47.7188C145.411 47.5426 145.025 47.4545 144.587 47.4545C144.15 47.4545 143.763 47.5426 143.428 47.7188C143.099 47.8949 142.843 48.1534 142.661 48.4943C142.479 48.8352 142.388 49.25 142.388 49.7386H137.888C137.888 48.5114 138.164 47.4545 138.715 46.5682C139.266 45.6818 140.045 45 141.05 44.5227C142.056 44.0455 143.235 43.8068 144.587 43.8068C145.985 43.8068 147.195 44.0312 148.218 44.4801C149.246 44.9233 150.039 45.5483 150.596 46.3551C151.158 47.1619 151.44 48.108 151.44 49.1932C151.44 49.8636 151.3 50.5312 151.022 51.196C150.744 51.8551 150.244 52.5852 149.522 53.3864C148.8 54.1875 147.775 55.142 146.445 56.25L144.809 57.6136V57.7159H151.627V61.5H138.229ZM160.734 61.7386C159.393 61.7386 158.202 61.5028 157.163 61.0312C156.129 60.554 155.313 59.8977 154.717 59.0625C154.126 58.2273 153.825 57.267 153.813 56.1818H158.415C158.433 56.7841 158.665 57.2642 159.114 57.6222C159.569 57.9801 160.109 58.1591 160.734 58.1591C161.217 58.1591 161.643 58.0568 162.012 57.8523C162.381 57.642 162.671 57.3466 162.881 56.9659C163.092 56.5852 163.194 56.142 163.188 55.6364C163.194 55.125 163.092 54.6818 162.881 54.3068C162.671 53.9261 162.381 53.6335 162.012 53.429C161.643 53.2187 161.217 53.1136 160.734 53.1136C160.234 53.1136 159.771 53.2358 159.344 53.4801C158.924 53.7188 158.614 54.0511 158.415 54.4773L154.256 53.6591L154.938 44.0455H166.665V47.8295H158.825L158.484 51.6818H158.586C158.859 51.1534 159.33 50.7159 160.001 50.3693C160.671 50.017 161.45 49.8409 162.336 49.8409C163.376 49.8409 164.302 50.0824 165.114 50.5653C165.933 51.0483 166.577 51.7159 167.049 52.5682C167.526 53.4148 167.762 54.392 167.756 55.5C167.762 56.7159 167.472 57.7955 166.887 58.7386C166.308 59.6761 165.492 60.4119 164.441 60.946C163.39 61.4744 162.154 61.7386 160.734 61.7386Z" fill="#181818"/>
<path fill-rule="evenodd" clip-rule="evenodd" d="M408.002 46.7181C408.375 46.3269 409 46.3269 409.374 46.7181C409.724 47.0849 409.724 47.6623 409.374 48.029L404.625 53L409.374 57.971C409.724 58.3377 409.724 58.9152 409.374 59.2819C409 59.6731 408.375 59.6731 408.002 59.2819L402 53L408.002 46.7181Z" fill="#AFAFAF"/>
<path fill-rule="evenodd" clip-rule="evenodd" d="M457.998 46.7181C457.625 46.3269 457 46.3269 456.626 46.7181C456.276 47.0849 456.276 47.6623 456.626 48.029L461.375 53L456.626 57.971C456.276 58.3377 456.276 58.9152 456.626 59.2819C457 59.6731 457.625 59.6731 457.998 59.2819L464 53L457.998 46.7181Z" fill="#181818"/>
<g clip-path="url(#clip0_81_549)">
<rect x="41.5" y="88.5" width="63" height="63" stroke="#D5D4DF"/>
<path d="M74.374 114.818V125H73.1411V116.111H73.0814L70.5956 117.761V116.509L73.1411 114.818H74.374Z" fill="#181818"/>
<rect x="104.5" y="88.5" width="63" height="63" stroke="#D5D4DF"/>
<path d="M132.82 125V124.105L136.181 120.426C136.575 119.995 136.9 119.621 137.155 119.303C137.41 118.981 137.599 118.679 137.722 118.398C137.848 118.113 137.911 117.814 137.911 117.503C137.911 117.145 137.825 116.835 137.652 116.573C137.483 116.311 137.251 116.109 136.956 115.967C136.661 115.824 136.33 115.753 135.962 115.753C135.571 115.753 135.23 115.834 134.938 115.996C134.65 116.156 134.426 116.379 134.267 116.668C134.111 116.956 134.033 117.294 134.033 117.682H132.86C132.86 117.085 132.997 116.562 133.272 116.111C133.548 115.66 133.922 115.309 134.396 115.057C134.873 114.805 135.409 114.679 136.002 114.679C136.598 114.679 137.127 114.805 137.588 115.057C138.049 115.309 138.41 115.648 138.672 116.076C138.933 116.504 139.064 116.979 139.064 117.503C139.064 117.877 138.996 118.244 138.861 118.602C138.728 118.956 138.496 119.352 138.165 119.79C137.836 120.224 137.381 120.754 136.797 121.381L134.51 123.827V123.906H139.243V125H132.82Z" fill="#181818"/>
<rect x="167.5" y="88.5" width="63" height="63" stroke="#D5D4DF"/>
<path d="M199.042 125.139C198.385 125.139 197.8 125.027 197.287 124.801C196.776 124.576 196.37 124.263 196.069 123.862C195.77 123.457 195.608 122.988 195.581 122.455H196.834C196.861 122.783 196.973 123.066 197.172 123.305C197.371 123.54 197.631 123.722 197.953 123.852C198.274 123.981 198.631 124.045 199.022 124.045C199.459 124.045 199.847 123.969 200.185 123.817C200.523 123.664 200.788 123.452 200.981 123.18C201.173 122.909 201.269 122.594 201.269 122.236C201.269 121.861 201.176 121.531 200.991 121.246C200.805 120.958 200.533 120.733 200.175 120.57C199.817 120.408 199.38 120.327 198.863 120.327H198.047V119.233H198.863C199.267 119.233 199.622 119.16 199.927 119.014C200.235 118.868 200.475 118.663 200.647 118.398C200.823 118.133 200.911 117.821 200.911 117.463C200.911 117.118 200.835 116.818 200.682 116.563C200.53 116.308 200.314 116.109 200.036 115.967C199.761 115.824 199.436 115.753 199.062 115.753C198.71 115.753 198.379 115.817 198.067 115.947C197.759 116.073 197.507 116.257 197.312 116.499C197.116 116.737 197.01 117.026 196.993 117.364H195.8C195.82 116.83 195.981 116.363 196.282 115.962C196.584 115.557 196.978 115.242 197.466 115.017C197.956 114.792 198.495 114.679 199.081 114.679C199.711 114.679 200.251 114.807 200.702 115.062C201.153 115.314 201.499 115.647 201.741 116.061C201.983 116.475 202.104 116.923 202.104 117.403C202.104 117.977 201.953 118.466 201.652 118.87C201.353 119.274 200.947 119.554 200.434 119.71V119.79C201.077 119.896 201.579 120.169 201.94 120.61C202.301 121.048 202.482 121.589 202.482 122.236C202.482 122.789 202.331 123.286 202.03 123.727C201.731 124.165 201.324 124.509 200.807 124.761C200.29 125.013 199.701 125.139 199.042 125.139Z" fill="#181818"/>
<rect x="230.5" y="88.5" width="63" height="63" stroke="#D5D4DF"/>
<path d="M258.283 122.912V121.898L262.758 114.818H263.493V116.389H262.996L259.616 121.739V121.818H265.641V122.912H258.283ZM263.076 125V122.604V122.131V114.818H264.249V125H263.076Z" fill="#181818"/>
<rect x="293.5" y="88.5" width="63" height="63" stroke="#D5D4DF"/>
<path d="M324.962 125.139C324.379 125.139 323.853 125.023 323.386 124.791C322.919 124.559 322.544 124.241 322.263 123.837C321.981 123.432 321.827 122.972 321.8 122.455H322.993C323.04 122.915 323.249 123.296 323.62 123.598C323.994 123.896 324.442 124.045 324.962 124.045C325.38 124.045 325.751 123.948 326.076 123.752C326.404 123.557 326.661 123.288 326.846 122.947C327.035 122.602 327.13 122.213 327.13 121.778C327.13 121.334 327.032 120.938 326.836 120.59C326.644 120.239 326.379 119.962 326.041 119.76C325.703 119.558 325.317 119.455 324.883 119.452C324.571 119.448 324.251 119.496 323.923 119.596C323.595 119.692 323.325 119.816 323.113 119.969L321.959 119.83L322.576 114.818H327.866V115.912H323.61L323.252 118.915H323.312C323.52 118.749 323.782 118.612 324.097 118.502C324.412 118.393 324.74 118.338 325.081 118.338C325.705 118.338 326.26 118.487 326.747 118.786C327.237 119.08 327.622 119.485 327.9 119.999C328.182 120.512 328.323 121.099 328.323 121.759C328.323 122.408 328.177 122.988 327.885 123.499C327.597 124.006 327.199 124.407 326.692 124.702C326.185 124.993 325.608 125.139 324.962 125.139Z" fill="#181818"/>
<rect x="356.5" y="88.5" width="63" height="63" stroke="#D5D4DF"/>
<path d="M388.062 125.139C387.644 125.133 387.226 125.053 386.809 124.901C386.391 124.748 386.01 124.491 385.665 124.13C385.321 123.765 385.044 123.273 384.835 122.653C384.626 122.03 384.522 121.248 384.522 120.307C384.522 119.405 384.606 118.607 384.775 117.911C384.944 117.211 385.19 116.623 385.511 116.146C385.833 115.665 386.22 115.3 386.674 115.052C387.132 114.803 387.647 114.679 388.221 114.679C388.791 114.679 389.298 114.793 389.742 115.022C390.189 115.247 390.554 115.562 390.836 115.967C391.117 116.371 391.3 116.837 391.383 117.364H390.169C390.057 116.906 389.838 116.527 389.513 116.225C389.188 115.924 388.758 115.773 388.221 115.773C387.432 115.773 386.81 116.116 386.356 116.802C385.906 117.488 385.678 118.451 385.675 119.69H385.755C385.94 119.409 386.161 119.168 386.416 118.969C386.674 118.767 386.959 118.612 387.271 118.502C387.583 118.393 387.912 118.338 388.26 118.338C388.844 118.338 389.377 118.484 389.861 118.776C390.345 119.064 390.733 119.463 391.025 119.974C391.316 120.481 391.462 121.062 391.462 121.719C391.462 122.348 391.321 122.925 391.04 123.449C390.758 123.969 390.362 124.384 389.851 124.692C389.344 124.997 388.748 125.146 388.062 125.139ZM388.062 124.045C388.479 124.045 388.854 123.941 389.185 123.732C389.52 123.523 389.783 123.243 389.976 122.892C390.171 122.541 390.269 122.15 390.269 121.719C390.269 121.298 390.174 120.915 389.986 120.57C389.8 120.222 389.543 119.946 389.215 119.74C388.89 119.535 388.519 119.432 388.101 119.432C387.786 119.432 387.493 119.495 387.221 119.621C386.95 119.743 386.711 119.912 386.505 120.128C386.303 120.343 386.144 120.59 386.028 120.869C385.912 121.144 385.854 121.434 385.854 121.739C385.854 122.143 385.949 122.521 386.138 122.872C386.33 123.223 386.592 123.507 386.923 123.722C387.258 123.938 387.637 124.045 388.062 124.045Z" fill="#181818"/>
<rect x="419.5" y="88.5" width="63" height="63" stroke="#D5D4DF"/>
<path d="M448.377 125L452.931 115.991V115.912H447.681V114.818H454.204V115.972L449.669 125H448.377Z" fill="#181818"/>
<rect x="41.5" y="151.5" width="63" height="63" stroke="#D5D4DF"/>
<path d="M74.374 177.818V188H73.1411V179.111H73.0814L70.5956 180.761V179.509L73.1411 177.818H74.374Z" fill="#181818"/>
<rect x="104.5" y="151.5" width="63" height="63" stroke="#D5D4DF"/>
<path d="M132.82 188V187.105L136.181 183.426C136.575 182.995 136.9 182.621 137.155 182.303C137.41 181.981 137.599 181.679 137.722 181.398C137.848 181.113 137.911 180.814 137.911 180.503C137.911 180.145 137.825 179.835 137.652 179.573C137.483 179.311 137.251 179.109 136.956 178.967C136.661 178.824 136.33 178.753 135.962 178.753C135.571 178.753 135.23 178.834 134.938 178.996C134.65 179.156 134.426 179.379 134.267 179.668C134.111 179.956 134.033 180.294 134.033 180.682H132.86C132.86 180.085 132.997 179.562 133.272 179.111C133.548 178.66 133.922 178.309 134.396 178.057C134.873 177.805 135.409 177.679 136.002 177.679C136.598 177.679 137.127 177.805 137.588 178.057C138.049 178.309 138.41 178.648 138.672 179.076C138.933 179.504 139.064 179.979 139.064 180.503C139.064 180.877 138.996 181.244 138.861 181.602C138.728 181.956 138.496 182.352 138.165 182.79C137.836 183.224 137.381 183.754 136.797 184.381L134.51 186.827V186.906H139.243V188H132.82Z" fill="#181818"/>
<rect x="167.5" y="151.5" width="63" height="63" stroke="#D5D4DF"/>
<path d="M199.042 188.139C198.385 188.139 197.8 188.027 197.287 187.801C196.776 187.576 196.37 187.263 196.069 186.862C195.77 186.457 195.608 185.988 195.581 185.455H196.834C196.861 185.783 196.973 186.066 197.172 186.305C197.371 186.54 197.631 186.722 197.953 186.852C198.274 186.981 198.631 187.045 199.022 187.045C199.459 187.045 199.847 186.969 200.185 186.817C200.523 186.664 200.788 186.452 200.981 186.18C201.173 185.909 201.269 185.594 201.269 185.236C201.269 184.861 201.176 184.531 200.991 184.246C200.805 183.958 200.533 183.733 200.175 183.57C199.817 183.408 199.38 183.327 198.863 183.327H198.047V182.233H198.863C199.267 182.233 199.622 182.16 199.927 182.014C200.235 181.868 200.475 181.663 200.647 181.398C200.823 181.133 200.911 180.821 200.911 180.463C200.911 180.118 200.835 179.818 200.682 179.563C200.53 179.308 200.314 179.109 200.036 178.967C199.761 178.824 199.436 178.753 199.062 178.753C198.71 178.753 198.379 178.817 198.067 178.947C197.759 179.073 197.507 179.257 197.312 179.499C197.116 179.737 197.01 180.026 196.993 180.364H195.8C195.82 179.83 195.981 179.363 196.282 178.962C196.584 178.557 196.978 178.242 197.466 178.017C197.956 177.792 198.495 177.679 199.081 177.679C199.711 177.679 200.251 177.807 200.702 178.062C201.153 178.314 201.499 178.647 201.741 179.061C201.983 179.475 202.104 179.923 202.104 180.403C202.104 180.977 201.953 181.466 201.652 181.87C201.353 182.274 200.947 182.554 200.434 182.71V182.79C201.077 182.896 201.579 183.169 201.94 183.61C202.301 184.048 202.482 184.589 202.482 185.236C202.482 185.789 202.331 186.286 202.03 186.727C201.731 187.165 201.324 187.509 200.807 187.761C200.29 188.013 199.701 188.139 199.042 188.139Z" fill="#181818"/>
<rect x="230.5" y="151.5" width="63" height="63" stroke="#D5D4DF"/>
<path d="M258.283 185.912V184.898L262.758 177.818H263.493V179.389H262.996L259.616 184.739V184.818H265.641V185.912H258.283ZM263.076 188V185.604V185.131V177.818H264.249V188H263.076Z" fill="#181818"/>
<rect x="293.5" y="151.5" width="63" height="63" stroke="#D5D4DF"/>
<path d="M324.962 188.139C324.379 188.139 323.853 188.023 323.386 187.791C322.919 187.559 322.544 187.241 322.263 186.837C321.981 186.432 321.827 185.972 321.8 185.455H322.993C323.04 185.915 323.249 186.296 323.62 186.598C323.994 186.896 324.442 187.045 324.962 187.045C325.38 187.045 325.751 186.948 326.076 186.752C326.404 186.557 326.661 186.288 326.846 185.947C327.035 185.602 327.13 185.213 327.13 184.778C327.13 184.334 327.032 183.938 326.836 183.59C326.644 183.239 326.379 182.962 326.041 182.76C325.703 182.558 325.317 182.455 324.883 182.452C324.571 182.448 324.251 182.496 323.923 182.596C323.595 182.692 323.325 182.816 323.113 182.969L321.959 182.83L322.576 177.818H327.866V178.912H323.61L323.252 181.915H323.312C323.52 181.749 323.782 181.612 324.097 181.502C324.412 181.393 324.74 181.338 325.081 181.338C325.705 181.338 326.26 181.487 326.747 181.786C327.237 182.08 327.622 182.485 327.9 182.999C328.182 183.512 328.323 184.099 328.323 184.759C328.323 185.408 328.177 185.988 327.885 186.499C327.597 187.006 327.199 187.407 326.692 187.702C326.185 187.993 325.608 188.139 324.962 188.139Z" fill="#181818"/>
<rect x="356.5" y="151.5" width="63" height="63" stroke="#D5D4DF"/>
<path d="M388.062 188.139C387.644 188.133 387.226 188.053 386.809 187.901C386.391 187.748 386.01 187.491 385.665 187.13C385.321 186.765 385.044 186.273 384.835 185.653C384.626 185.03 384.522 184.248 384.522 183.307C384.522 182.405 384.606 181.607 384.775 180.911C384.944 180.211 385.19 179.623 385.511 179.146C385.833 178.665 386.22 178.3 386.674 178.052C387.132 177.803 387.647 177.679 388.221 177.679C388.791 177.679 389.298 177.793 389.742 178.022C390.189 178.247 390.554 178.562 390.836 178.967C391.117 179.371 391.3 179.837 391.383 180.364H390.169C390.057 179.906 389.838 179.527 389.513 179.225C389.188 178.924 388.758 178.773 388.221 178.773C387.432 178.773 386.81 179.116 386.356 179.802C385.906 180.488 385.678 181.451 385.675 182.69H385.755C385.94 182.409 386.161 182.168 386.416 181.969C386.674 181.767 386.959 181.612 387.271 181.502C387.583 181.393 387.912 181.338 388.26 181.338C388.844 181.338 389.377 181.484 389.861 181.776C390.345 182.064 390.733 182.463 391.025 182.974C391.316 183.481 391.462 184.062 391.462 184.719C391.462 185.348 391.321 185.925 391.04 186.449C390.758 186.969 390.362 187.384 389.851 187.692C389.344 187.997 388.748 188.146 388.062 188.139ZM388.062 187.045C388.479 187.045 388.854 186.941 389.185 186.732C389.52 186.523 389.783 186.243 389.976 185.892C390.171 185.541 390.269 185.15 390.269 184.719C390.269 184.298 390.174 183.915 389.986 183.57C389.8 183.222 389.543 182.946 389.215 182.74C388.89 182.535 388.519 182.432 388.101 182.432C387.786 182.432 387.493 182.495 387.221 182.621C386.95 182.743 386.711 182.912 386.505 183.128C386.303 183.343 386.144 183.59 386.028 183.869C385.912 184.144 385.854 184.434 385.854 184.739C385.854 185.143 385.949 185.521 386.138 185.872C386.33 186.223 386.592 186.507 386.923 186.722C387.258 186.938 387.637 187.045 388.062 187.045Z" fill="#181818"/>
<rect x="419.5" y="151.5" width="63" height="63" stroke="#D5D4DF"/>
<path d="M448.377 188L452.931 178.991V178.912H447.681V177.818H454.204V178.972L449.669 188H448.377Z" fill="#181818"/>
<rect x="41.5" y="214.5" width="63" height="63" stroke="#D5D4DF"/>
<path d="M73.0019 251.139C72.3191 251.139 71.7159 251.018 71.1922 250.776C70.6718 250.531 70.2658 250.195 69.9742 249.767C69.6825 249.336 69.5383 248.846 69.5416 248.295C69.5383 247.865 69.6228 247.467 69.7952 247.102C69.9675 246.734 70.2029 246.428 70.5012 246.183C70.8028 245.934 71.1392 245.777 71.5104 245.71V245.651C71.0232 245.525 70.6354 245.251 70.347 244.83C70.0587 244.406 69.9162 243.924 69.9195 243.384C69.9162 242.866 70.0471 242.404 70.3122 241.996C70.5774 241.589 70.942 241.267 71.406 241.032C71.8733 240.797 72.4053 240.679 73.0019 240.679C73.5918 240.679 74.1188 240.797 74.5828 241.032C75.0468 241.267 75.4114 241.589 75.6766 241.996C75.945 242.404 76.0809 242.866 76.0843 243.384C76.0809 243.924 75.9334 244.406 75.6418 244.83C75.3534 245.251 74.9706 245.525 74.4933 245.651V245.71C74.8612 245.777 75.1927 245.934 75.4877 246.183C75.7826 246.428 76.018 246.734 76.1936 247.102C76.3693 247.467 76.4588 247.865 76.4621 248.295C76.4588 248.846 76.3096 249.336 76.0146 249.767C75.723 250.195 75.317 250.531 74.7966 250.776C74.2796 251.018 73.6813 251.139 73.0019 251.139ZM73.0019 250.045C73.4626 250.045 73.8603 249.971 74.195 249.822C74.5298 249.673 74.7883 249.462 74.9706 249.19C75.1529 248.919 75.2457 248.6 75.249 248.236C75.2457 247.851 75.1463 247.512 74.9507 247.217C74.7552 246.922 74.4884 246.69 74.1503 246.521C73.8155 246.352 73.4327 246.267 73.0019 246.267C72.5677 246.267 72.1799 246.352 71.8385 246.521C71.5004 246.69 71.2336 246.922 71.0381 247.217C70.8459 247.512 70.7514 247.851 70.7547 248.236C70.7514 248.6 70.8392 248.919 71.0182 249.19C71.2005 249.462 71.4607 249.673 71.7987 249.822C72.1368 249.971 72.5378 250.045 73.0019 250.045ZM73.0019 245.213C73.3664 245.213 73.6896 245.14 73.9713 244.994C74.2564 244.848 74.4801 244.645 74.6425 244.383C74.8049 244.121 74.8878 243.814 74.8911 243.463C74.8878 243.118 74.8066 242.818 74.6475 242.563C74.4884 242.305 74.268 242.106 73.9862 241.967C73.7045 241.824 73.3764 241.753 73.0019 241.753C72.6207 241.753 72.2876 241.824 72.0026 241.967C71.7175 242.106 71.4971 242.305 71.3414 242.563C71.1856 242.818 71.1093 243.118 71.1127 243.463C71.1093 243.814 71.1872 244.121 71.3463 244.383C71.5087 244.645 71.7325 244.848 72.0175 244.994C72.3025 245.14 72.6307 245.213 73.0019 245.213Z" fill="#181818"/>
<rect x="104.5" y="214.5" width="63" height="63" stroke="#D5D4DF"/>
<path d="M135.922 240.679C136.34 240.682 136.758 240.762 137.175 240.918C137.593 241.073 137.974 241.332 138.319 241.693C138.663 242.051 138.94 242.54 139.149 243.16C139.358 243.78 139.462 244.557 139.462 245.491C139.462 246.396 139.376 247.2 139.204 247.903C139.035 248.602 138.789 249.192 138.468 249.673C138.15 250.153 137.762 250.518 137.304 250.766C136.85 251.015 136.337 251.139 135.763 251.139C135.193 251.139 134.684 251.027 134.237 250.801C133.793 250.572 133.428 250.256 133.143 249.852C132.861 249.444 132.681 248.972 132.601 248.435H133.814C133.924 248.902 134.141 249.288 134.466 249.593C134.794 249.895 135.226 250.045 135.763 250.045C136.549 250.045 137.169 249.702 137.623 249.016C138.08 248.33 138.309 247.361 138.309 246.108H138.229C138.044 246.386 137.823 246.627 137.568 246.829C137.313 247.031 137.029 247.187 136.718 247.296C136.406 247.406 136.075 247.46 135.723 247.46C135.14 247.46 134.605 247.316 134.118 247.028C133.634 246.736 133.246 246.337 132.954 245.83C132.666 245.319 132.522 244.736 132.522 244.08C132.522 243.456 132.661 242.886 132.939 242.369C133.221 241.849 133.616 241.435 134.123 241.126C134.633 240.818 135.233 240.669 135.922 240.679ZM135.922 241.773C135.505 241.773 135.129 241.877 134.794 242.086C134.462 242.291 134.199 242.57 134.003 242.921C133.811 243.269 133.715 243.655 133.715 244.08C133.715 244.504 133.808 244.89 133.993 245.238C134.182 245.583 134.439 245.858 134.764 246.063C135.092 246.265 135.465 246.366 135.883 246.366C136.197 246.366 136.491 246.305 136.763 246.183C137.034 246.057 137.271 245.886 137.473 245.67C137.679 245.452 137.84 245.205 137.956 244.93C138.072 244.651 138.13 244.361 138.13 244.06C138.13 243.662 138.034 243.289 137.841 242.941C137.652 242.593 137.391 242.311 137.056 242.096C136.724 241.88 136.347 241.773 135.922 241.773Z" fill="#181818"/>
<rect x="167.5" y="214.5" width="63" height="63" stroke="#D5D4DF"/>
<path d="M195.842 240.818V251H194.609V242.111H194.549L192.063 243.761V242.509L194.609 240.818H195.842ZM203.534 251.139C202.785 251.139 202.147 250.935 201.62 250.528C201.093 250.117 200.69 249.522 200.412 248.743C200.134 247.961 199.994 247.016 199.994 245.909C199.994 244.809 200.134 243.869 200.412 243.09C200.694 242.308 201.098 241.711 201.625 241.3C202.155 240.886 202.792 240.679 203.534 240.679C204.277 240.679 204.911 240.886 205.438 241.3C205.969 241.711 206.373 242.308 206.651 243.09C206.933 243.869 207.074 244.809 207.074 245.909C207.074 247.016 206.935 247.961 206.656 248.743C206.378 249.522 205.975 250.117 205.448 250.528C204.921 250.935 204.283 251.139 203.534 251.139ZM203.534 250.045C204.277 250.045 204.853 249.687 205.264 248.972C205.675 248.256 205.881 247.235 205.881 245.909C205.881 245.027 205.786 244.277 205.597 243.657C205.412 243.037 205.143 242.565 204.792 242.24C204.444 241.915 204.025 241.753 203.534 241.753C202.798 241.753 202.223 242.116 201.809 242.842C201.395 243.564 201.188 244.587 201.188 245.909C201.188 246.791 201.28 247.54 201.466 248.156C201.652 248.773 201.918 249.242 202.266 249.563C202.618 249.885 203.04 250.045 203.534 250.045Z" fill="#181818"/>
<rect x="230.5" y="214.5" width="63" height="63" stroke="#D5D4DF"/>
<path d="M258.842 240.818V251H257.609V242.111H257.549L255.063 243.761V242.509L257.609 240.818H258.842ZM267.906 240.818V251H266.673V242.111H266.614L264.128 243.761V242.509L266.673 240.818H267.906Z" fill="#181818"/>
<rect x="293.5" y="214.5" width="63" height="63" stroke="#D5D4DF"/>
<path d="M321.842 240.818V251H320.609V242.111H320.549L318.063 243.761V242.509L320.609 240.818H321.842ZM326.352 251V250.105L329.713 246.426C330.107 245.995 330.432 245.621 330.688 245.303C330.943 244.981 331.132 244.679 331.254 244.398C331.38 244.113 331.443 243.814 331.443 243.503C331.443 243.145 331.357 242.835 331.185 242.573C331.016 242.311 330.784 242.109 330.489 241.967C330.194 241.824 329.862 241.753 329.494 241.753C329.103 241.753 328.762 241.834 328.47 241.996C328.182 242.156 327.958 242.379 327.799 242.668C327.643 242.956 327.565 243.294 327.565 243.682H326.392C326.392 243.085 326.53 242.562 326.805 242.111C327.08 241.66 327.454 241.309 327.928 241.057C328.406 240.805 328.941 240.679 329.534 240.679C330.131 240.679 330.659 240.805 331.12 241.057C331.581 241.309 331.942 241.648 332.204 242.076C332.466 242.504 332.597 242.979 332.597 243.503C332.597 243.877 332.529 244.244 332.393 244.602C332.26 244.956 332.028 245.352 331.697 245.79C331.369 246.224 330.913 246.754 330.33 247.381L328.043 249.827V249.906H332.776V251H326.352Z" fill="#181818"/>
<rect x="356.5" y="214.5" width="63" height="63" stroke="#D5D4DF"/>
<path d="M384.842 240.818V251H383.609V242.111H383.549L381.063 243.761V242.509L383.609 240.818H384.842ZM392.574 251.139C391.918 251.139 391.333 251.027 390.819 250.801C390.308 250.576 389.902 250.263 389.601 249.862C389.303 249.457 389.14 248.988 389.114 248.455H390.366C390.393 248.783 390.506 249.066 390.705 249.305C390.903 249.54 391.164 249.722 391.485 249.852C391.807 249.981 392.163 250.045 392.554 250.045C392.991 250.045 393.379 249.969 393.717 249.817C394.055 249.664 394.321 249.452 394.513 249.18C394.705 248.909 394.801 248.594 394.801 248.236C394.801 247.861 394.708 247.531 394.523 247.246C394.337 246.958 394.065 246.733 393.707 246.57C393.349 246.408 392.912 246.327 392.395 246.327H391.58V245.233H392.395C392.799 245.233 393.154 245.16 393.459 245.014C393.767 244.868 394.007 244.663 394.18 244.398C394.355 244.133 394.443 243.821 394.443 243.463C394.443 243.118 394.367 242.818 394.214 242.563C394.062 242.308 393.847 242.109 393.568 241.967C393.293 241.824 392.968 241.753 392.594 241.753C392.242 241.753 391.911 241.817 391.599 241.947C391.291 242.073 391.039 242.257 390.844 242.499C390.648 242.737 390.542 243.026 390.526 243.364H389.332C389.352 242.83 389.513 242.363 389.815 241.962C390.116 241.557 390.511 241.242 390.998 241.017C391.488 240.792 392.027 240.679 392.614 240.679C393.243 240.679 393.784 240.807 394.234 241.062C394.685 241.314 395.031 241.647 395.273 242.061C395.515 242.475 395.636 242.923 395.636 243.403C395.636 243.977 395.486 244.466 395.184 244.87C394.886 245.274 394.48 245.554 393.966 245.71V245.79C394.609 245.896 395.111 246.169 395.472 246.61C395.834 247.048 396.014 247.589 396.014 248.236C396.014 248.789 395.863 249.286 395.562 249.727C395.263 250.165 394.856 250.509 394.339 250.761C393.822 251.013 393.233 251.139 392.574 251.139Z" fill="#181818"/>
<rect x="419.5" y="214.5" width="63" height="63" stroke="#D5D4DF"/>
<path d="M447.842 240.818V251H446.609V242.111H446.549L444.063 243.761V242.509L446.609 240.818H447.842ZM451.815 248.912V247.898L456.29 240.818H457.026V242.389H456.528L453.148 247.739V247.818H459.173V248.912H451.815ZM456.608 251V248.604V248.131V240.818H457.781V251H456.608Z" fill="#181818"/>
<rect x="41.5" y="277.5" width="63" height="63" stroke="#D5D4DF"/>
<path d="M69.8418 303.818V314H68.6088V305.111H68.5492L66.0634 306.761V305.509L68.6088 303.818H69.8418ZM77.4943 314.139C76.911 314.139 76.3857 314.023 75.9183 313.791C75.451 313.559 75.0765 313.241 74.7947 312.837C74.513 312.432 74.3589 311.972 74.3324 311.455H75.5256C75.572 311.915 75.7808 312.296 76.152 312.598C76.5265 312.896 76.974 313.045 77.4943 313.045C77.9119 313.045 78.2831 312.948 78.608 312.752C78.9361 312.557 79.1929 312.288 79.3786 311.947C79.5675 311.602 79.6619 311.213 79.6619 310.778C79.6619 310.334 79.5642 309.938 79.3686 309.59C79.1764 309.239 78.9112 308.962 78.5732 308.76C78.2351 308.558 77.849 308.455 77.4148 308.452C77.1032 308.448 76.7834 308.496 76.4553 308.596C76.1271 308.692 75.857 308.816 75.6449 308.969L74.4915 308.83L75.108 303.818H80.3977V304.912H76.142L75.7841 307.915H75.8438C76.0526 307.749 76.3144 307.612 76.6293 307.502C76.9441 307.393 77.2723 307.338 77.6136 307.338C78.2367 307.338 78.7919 307.487 79.2791 307.786C79.7696 308.08 80.1541 308.485 80.4325 308.999C80.7143 309.512 80.8551 310.099 80.8551 310.759C80.8551 311.408 80.7093 311.988 80.4176 312.499C80.1293 313.006 79.7315 313.407 79.2244 313.702C78.7173 313.993 78.1406 314.139 77.4943 314.139Z" fill="#181818"/>
<rect x="104.5" y="277.5" width="63" height="63" stroke="#D5D4DF"/>
<path d="M132.842 303.818V314H131.609V305.111H131.549L129.063 306.761V305.509L131.609 303.818H132.842ZM140.594 314.139C140.176 314.133 139.759 314.053 139.341 313.901C138.923 313.748 138.542 313.491 138.197 313.13C137.853 312.765 137.576 312.273 137.367 311.653C137.158 311.03 137.054 310.248 137.054 309.307C137.054 308.405 137.138 307.607 137.308 306.911C137.477 306.211 137.722 305.623 138.043 305.146C138.365 304.665 138.753 304.3 139.207 304.052C139.664 303.803 140.179 303.679 140.753 303.679C141.323 303.679 141.83 303.793 142.274 304.022C142.722 304.247 143.086 304.562 143.368 304.967C143.65 305.371 143.832 305.837 143.915 306.364H142.702C142.589 305.906 142.37 305.527 142.045 305.225C141.721 304.924 141.29 304.773 140.753 304.773C139.964 304.773 139.343 305.116 138.888 305.802C138.438 306.488 138.211 307.451 138.207 308.69H138.287C138.473 308.409 138.693 308.168 138.948 307.969C139.207 307.767 139.492 307.612 139.803 307.502C140.115 307.393 140.445 307.338 140.793 307.338C141.376 307.338 141.91 307.484 142.393 307.776C142.877 308.064 143.265 308.463 143.557 308.974C143.848 309.481 143.994 310.062 143.994 310.719C143.994 311.348 143.853 311.925 143.572 312.449C143.29 312.969 142.894 313.384 142.384 313.692C141.876 313.997 141.28 314.146 140.594 314.139ZM140.594 313.045C141.011 313.045 141.386 312.941 141.717 312.732C142.052 312.523 142.316 312.243 142.508 311.892C142.703 311.541 142.801 311.15 142.801 310.719C142.801 310.298 142.707 309.915 142.518 309.57C142.332 309.222 142.075 308.946 141.747 308.74C141.422 308.535 141.051 308.432 140.634 308.432C140.319 308.432 140.025 308.495 139.754 308.621C139.482 308.743 139.243 308.912 139.038 309.128C138.835 309.343 138.676 309.59 138.56 309.869C138.444 310.144 138.386 310.434 138.386 310.739C138.386 311.143 138.481 311.521 138.67 311.872C138.862 312.223 139.124 312.507 139.455 312.722C139.79 312.938 140.17 313.045 140.594 313.045Z" fill="#181818"/>
<rect x="167.5" y="277.5" width="63" height="63" stroke="#D5D4DF"/>
<path d="M195.842 303.818V314H194.609V305.111H194.549L192.063 306.761V305.509L194.609 303.818H195.842ZM200.909 314L205.463 304.991V304.912H200.213V303.818H206.736V304.972L202.202 314H200.909Z" fill="#181818"/>
<rect x="230.5" y="277.5" width="63" height="63" stroke="#D5D4DF"/>
<path d="M258.283 311.912V310.898L262.758 303.818H263.493V305.389H262.996L259.616 310.739V310.818H265.641V311.912H258.283ZM263.076 314V311.604V311.131V303.818H264.249V314H263.076Z" fill="#181818"/>
<rect x="293.5" y="277.5" width="63" height="63" stroke="#D5D4DF"/>
<path d="M321.842 303.818V314H320.609V305.111H320.549L318.063 306.761V305.509L320.609 303.818H321.842ZM329.455 303.679C329.872 303.682 330.29 303.762 330.707 303.918C331.125 304.073 331.506 304.332 331.851 304.693C332.196 305.051 332.472 305.54 332.681 306.16C332.89 306.78 332.994 307.557 332.994 308.491C332.994 309.396 332.908 310.2 332.736 310.903C332.567 311.602 332.321 312.192 332 312.673C331.682 313.153 331.294 313.518 330.837 313.766C330.383 314.015 329.869 314.139 329.295 314.139C328.725 314.139 328.217 314.027 327.769 313.801C327.325 313.572 326.96 313.256 326.675 312.852C326.394 312.444 326.213 311.972 326.134 311.435H327.347C327.456 311.902 327.673 312.288 327.998 312.593C328.326 312.895 328.759 313.045 329.295 313.045C330.081 313.045 330.701 312.702 331.155 312.016C331.612 311.33 331.841 310.361 331.841 309.108H331.761C331.576 309.386 331.355 309.627 331.1 309.829C330.845 310.031 330.562 310.187 330.25 310.296C329.938 310.406 329.607 310.46 329.256 310.46C328.672 310.46 328.137 310.316 327.65 310.028C327.166 309.736 326.778 309.337 326.487 308.83C326.198 308.319 326.054 307.736 326.054 307.08C326.054 306.456 326.193 305.886 326.472 305.369C326.753 304.849 327.148 304.435 327.655 304.126C328.165 303.818 328.765 303.669 329.455 303.679ZM329.455 304.773C329.037 304.773 328.661 304.877 328.326 305.086C327.995 305.291 327.731 305.57 327.536 305.921C327.343 306.269 327.247 306.655 327.247 307.08C327.247 307.504 327.34 307.89 327.526 308.238C327.714 308.583 327.971 308.858 328.296 309.063C328.624 309.265 328.997 309.366 329.415 309.366C329.73 309.366 330.023 309.305 330.295 309.183C330.567 309.057 330.804 308.886 331.006 308.67C331.211 308.452 331.372 308.205 331.488 307.93C331.604 307.651 331.662 307.361 331.662 307.06C331.662 306.662 331.566 306.289 331.374 305.941C331.185 305.593 330.923 305.311 330.588 305.096C330.257 304.88 329.879 304.773 329.455 304.773Z" fill="#181818"/>
<rect x="356.5" y="277.5" width="63" height="63" stroke="#D5D4DF"/>
<path d="M380.288 314V313.105L383.649 309.426C384.043 308.995 384.368 308.621 384.623 308.303C384.878 307.981 385.067 307.679 385.19 307.398C385.316 307.113 385.379 306.814 385.379 306.503C385.379 306.145 385.293 305.835 385.12 305.573C384.951 305.311 384.719 305.109 384.424 304.967C384.129 304.824 383.798 304.753 383.43 304.753C383.039 304.753 382.697 304.834 382.406 304.996C382.117 305.156 381.894 305.379 381.735 305.668C381.579 305.956 381.501 306.294 381.501 306.682H380.328C380.328 306.085 380.465 305.562 380.74 305.111C381.015 304.66 381.39 304.309 381.864 304.057C382.341 303.805 382.876 303.679 383.47 303.679C384.066 303.679 384.595 303.805 385.056 304.057C385.516 304.309 385.878 304.648 386.139 305.076C386.401 305.504 386.532 305.979 386.532 306.503C386.532 306.877 386.464 307.244 386.328 307.602C386.196 307.956 385.964 308.352 385.632 308.79C385.304 309.224 384.848 309.754 384.265 310.381L381.978 312.827V312.906H386.711V314H380.288ZM392.534 314.139C391.785 314.139 391.147 313.935 390.62 313.528C390.093 313.117 389.69 312.522 389.412 311.743C389.134 310.961 388.994 310.016 388.994 308.909C388.994 307.809 389.134 306.869 389.412 306.09C389.694 305.308 390.098 304.711 390.625 304.3C391.155 303.886 391.792 303.679 392.534 303.679C393.277 303.679 393.911 303.886 394.438 304.3C394.969 304.711 395.373 305.308 395.651 306.09C395.933 306.869 396.074 307.809 396.074 308.909C396.074 310.016 395.935 310.961 395.656 311.743C395.378 312.522 394.975 313.117 394.448 313.528C393.921 313.935 393.283 314.139 392.534 314.139ZM392.534 313.045C393.277 313.045 393.853 312.687 394.264 311.972C394.675 311.256 394.881 310.235 394.881 308.909C394.881 308.027 394.786 307.277 394.597 306.657C394.412 306.037 394.143 305.565 393.792 305.24C393.444 304.915 393.025 304.753 392.534 304.753C391.798 304.753 391.223 305.116 390.809 305.842C390.395 306.564 390.188 307.587 390.188 308.909C390.188 309.791 390.28 310.54 390.466 311.156C390.652 311.773 390.918 312.242 391.266 312.563C391.618 312.885 392.04 313.045 392.534 313.045Z" fill="#181818"/>
<rect x="419.5" y="277.5" width="63" height="63" stroke="#D5D4DF"/>
<path d="M443.288 314V313.105L446.649 309.426C447.043 308.995 447.368 308.621 447.623 308.303C447.878 307.981 448.067 307.679 448.19 307.398C448.316 307.113 448.379 306.814 448.379 306.503C448.379 306.145 448.293 305.835 448.12 305.573C447.951 305.311 447.719 305.109 447.424 304.967C447.129 304.824 446.798 304.753 446.43 304.753C446.039 304.753 445.697 304.834 445.406 304.996C445.117 305.156 444.894 305.379 444.735 305.668C444.579 305.956 444.501 306.294 444.501 306.682H443.328C443.328 306.085 443.465 305.562 443.74 305.111C444.015 304.66 444.39 304.309 444.864 304.057C445.341 303.805 445.876 303.679 446.47 303.679C447.066 303.679 447.595 303.805 448.056 304.057C448.516 304.309 448.878 304.648 449.139 305.076C449.401 305.504 449.532 305.979 449.532 306.503C449.532 306.877 449.464 307.244 449.328 307.602C449.196 307.956 448.964 308.352 448.632 308.79C448.304 309.224 447.848 309.754 447.265 310.381L444.978 312.827V312.906H449.711V314H443.288ZM456.906 303.818V314H455.673V305.111H455.614L453.128 306.761V305.509L455.673 303.818H456.906Z" fill="#181818"/>
<rect x="41.5" y="340.5" width="63" height="63" stroke="#D5D4DF"/>
<path d="M65.2878 377V376.105L68.6486 372.426C69.043 371.995 69.3678 371.621 69.623 371.303C69.8783 370.981 70.0672 370.679 70.1898 370.398C70.3158 370.113 70.3787 369.814 70.3787 369.503C70.3787 369.145 70.2926 368.835 70.1202 368.573C69.9512 368.311 69.7192 368.109 69.4242 367.967C69.1292 367.824 68.7978 367.753 68.4299 367.753C68.0388 367.753 67.6974 367.834 67.4057 367.996C67.1174 368.156 66.8936 368.379 66.7346 368.668C66.5788 368.956 66.5009 369.294 66.5009 369.682H65.3276C65.3276 369.085 65.4651 368.562 65.7402 368.111C66.0153 367.66 66.3899 367.309 66.8638 367.057C67.3411 366.805 67.8764 366.679 68.4696 366.679C69.0662 366.679 69.5949 366.805 70.0556 367.057C70.5163 367.309 70.8775 367.648 71.1394 368.076C71.4012 368.504 71.5321 368.979 71.5321 369.503C71.5321 369.877 71.4642 370.244 71.3283 370.602C71.1957 370.956 70.9637 371.352 70.6323 371.79C70.3042 372.224 69.8484 372.754 69.2651 373.381L66.9782 375.827V375.906H71.7111V377H65.2878ZM74.3523 377V376.105L77.7131 372.426C78.1075 371.995 78.4323 371.621 78.6875 371.303C78.9427 370.981 79.1316 370.679 79.2543 370.398C79.3802 370.113 79.4432 369.814 79.4432 369.503C79.4432 369.145 79.357 368.835 79.1847 368.573C79.0156 368.311 78.7836 368.109 78.4886 367.967C78.1937 367.824 77.8622 367.753 77.4943 367.753C77.1032 367.753 76.7618 367.834 76.4702 367.996C76.1818 368.156 75.9581 368.379 75.799 368.668C75.6432 368.956 75.5653 369.294 75.5653 369.682H74.392C74.392 369.085 74.5296 368.562 74.8047 368.111C75.0798 367.66 75.4543 367.309 75.9283 367.057C76.4055 366.805 76.9408 366.679 77.5341 366.679C78.1307 366.679 78.6593 366.805 79.12 367.057C79.5807 367.309 79.942 367.648 80.2038 368.076C80.4657 368.504 80.5966 368.979 80.5966 369.503C80.5966 369.877 80.5286 370.244 80.3928 370.602C80.2602 370.956 80.0282 371.352 79.6967 371.79C79.3686 372.224 78.9129 372.754 78.3295 373.381L76.0426 375.827V375.906H80.7756V377H74.3523Z" fill="#181818"/>
<rect x="104.5" y="340.5" width="63" height="63" stroke="#D5D4DF"/>
<path d="M128.288 377V376.105L131.649 372.426C132.043 371.995 132.368 371.621 132.623 371.303C132.878 370.981 133.067 370.679 133.19 370.398C133.316 370.113 133.379 369.814 133.379 369.503C133.379 369.145 133.293 368.835 133.12 368.573C132.951 368.311 132.719 368.109 132.424 367.967C132.129 367.824 131.798 367.753 131.43 367.753C131.039 367.753 130.697 367.834 130.406 367.996C130.117 368.156 129.894 368.379 129.735 368.668C129.579 368.956 129.501 369.294 129.501 369.682H128.328C128.328 369.085 128.465 368.562 128.74 368.111C129.015 367.66 129.39 367.309 129.864 367.057C130.341 366.805 130.876 366.679 131.47 366.679C132.066 366.679 132.595 366.805 133.056 367.057C133.516 367.309 133.878 367.648 134.139 368.076C134.401 368.504 134.532 368.979 134.532 369.503C134.532 369.877 134.464 370.244 134.328 370.602C134.196 370.956 133.964 371.352 133.632 371.79C133.304 372.224 132.848 372.754 132.265 373.381L129.978 375.827V375.906H134.711V377H128.288ZM140.574 377.139C139.918 377.139 139.333 377.027 138.819 376.801C138.308 376.576 137.902 376.263 137.601 375.862C137.303 375.457 137.14 374.988 137.114 374.455H138.366C138.393 374.783 138.506 375.066 138.705 375.305C138.903 375.54 139.164 375.722 139.485 375.852C139.807 375.981 140.163 376.045 140.554 376.045C140.991 376.045 141.379 375.969 141.717 375.817C142.055 375.664 142.321 375.452 142.513 375.18C142.705 374.909 142.801 374.594 142.801 374.236C142.801 373.861 142.708 373.531 142.523 373.246C142.337 372.958 142.065 372.733 141.707 372.57C141.349 372.408 140.912 372.327 140.395 372.327H139.58V371.233H140.395C140.799 371.233 141.154 371.16 141.459 371.014C141.767 370.868 142.007 370.663 142.18 370.398C142.355 370.133 142.443 369.821 142.443 369.463C142.443 369.118 142.367 368.818 142.214 368.563C142.062 368.308 141.847 368.109 141.568 367.967C141.293 367.824 140.968 367.753 140.594 367.753C140.242 367.753 139.911 367.817 139.599 367.947C139.291 368.073 139.039 368.257 138.844 368.499C138.648 368.737 138.542 369.026 138.526 369.364H137.332C137.352 368.83 137.513 368.363 137.815 367.962C138.116 367.557 138.511 367.242 138.998 367.017C139.488 366.792 140.027 366.679 140.614 366.679C141.243 366.679 141.784 366.807 142.234 367.062C142.685 367.314 143.031 367.647 143.273 368.061C143.515 368.475 143.636 368.923 143.636 369.403C143.636 369.977 143.486 370.466 143.184 370.87C142.886 371.274 142.48 371.554 141.966 371.71V371.79C142.609 371.896 143.111 372.169 143.472 372.61C143.834 373.048 144.014 373.589 144.014 374.236C144.014 374.789 143.863 375.286 143.562 375.727C143.263 376.165 142.856 376.509 142.339 376.761C141.822 377.013 141.233 377.139 140.574 377.139Z" fill="#181818"/>
<rect x="167.5" y="340.5" width="63" height="63" stroke="#D5D4DF"/>
<path d="M191.288 377V376.105L194.649 372.426C195.043 371.995 195.368 371.621 195.623 371.303C195.878 370.981 196.067 370.679 196.19 370.398C196.316 370.113 196.379 369.814 196.379 369.503C196.379 369.145 196.293 368.835 196.12 368.573C195.951 368.311 195.719 368.109 195.424 367.967C195.129 367.824 194.798 367.753 194.43 367.753C194.039 367.753 193.697 367.834 193.406 367.996C193.117 368.156 192.894 368.379 192.735 368.668C192.579 368.956 192.501 369.294 192.501 369.682H191.328C191.328 369.085 191.465 368.562 191.74 368.111C192.015 367.66 192.39 367.309 192.864 367.057C193.341 366.805 193.876 366.679 194.47 366.679C195.066 366.679 195.595 366.805 196.056 367.057C196.516 367.309 196.878 367.648 197.139 368.076C197.401 368.504 197.532 368.979 197.532 369.503C197.532 369.877 197.464 370.244 197.328 370.602C197.196 370.956 196.964 371.352 196.632 371.79C196.304 372.224 195.848 372.754 195.265 373.381L192.978 375.827V375.906H197.711V377H191.288ZM199.815 374.912V373.898L204.29 366.818H205.026V368.389H204.528L201.148 373.739V373.818H207.173V374.912H199.815ZM204.608 377V374.604V374.131V366.818H205.781V377H204.608Z" fill="#181818"/>
<rect x="230.5" y="340.5" width="63" height="63" stroke="#D5D4DF"/>
<path d="M254.288 377V376.105L257.649 372.426C258.043 371.995 258.368 371.621 258.623 371.303C258.878 370.981 259.067 370.679 259.19 370.398C259.316 370.113 259.379 369.814 259.379 369.503C259.379 369.145 259.293 368.835 259.12 368.573C258.951 368.311 258.719 368.109 258.424 367.967C258.129 367.824 257.798 367.753 257.43 367.753C257.039 367.753 256.697 367.834 256.406 367.996C256.117 368.156 255.894 368.379 255.735 368.668C255.579 368.956 255.501 369.294 255.501 369.682H254.328C254.328 369.085 254.465 368.562 254.74 368.111C255.015 367.66 255.39 367.309 255.864 367.057C256.341 366.805 256.876 366.679 257.47 366.679C258.066 366.679 258.595 366.805 259.056 367.057C259.516 367.309 259.878 367.648 260.139 368.076C260.401 368.504 260.532 368.979 260.532 369.503C260.532 369.877 260.464 370.244 260.328 370.602C260.196 370.956 259.964 371.352 259.632 371.79C259.304 372.224 258.848 372.754 258.265 373.381L255.978 375.827V375.906H260.711V377H254.288ZM266.494 377.139C265.911 377.139 265.386 377.023 264.918 376.791C264.451 376.559 264.076 376.241 263.795 375.837C263.513 375.432 263.359 374.972 263.332 374.455H264.526C264.572 374.915 264.781 375.296 265.152 375.598C265.527 375.896 265.974 376.045 266.494 376.045C266.912 376.045 267.283 375.948 267.608 375.752C267.936 375.557 268.193 375.288 268.379 374.947C268.567 374.602 268.662 374.213 268.662 373.778C268.662 373.334 268.564 372.938 268.369 372.59C268.176 372.239 267.911 371.962 267.573 371.76C267.235 371.558 266.849 371.455 266.415 371.452C266.103 371.448 265.783 371.496 265.455 371.596C265.127 371.692 264.857 371.816 264.645 371.969L263.491 371.83L264.108 366.818H269.398V367.912H265.142L264.784 370.915H264.844C265.053 370.749 265.314 370.612 265.629 370.502C265.944 370.393 266.272 370.338 266.614 370.338C267.237 370.338 267.792 370.487 268.279 370.786C268.77 371.08 269.154 371.485 269.433 371.999C269.714 372.512 269.855 373.099 269.855 373.759C269.855 374.408 269.709 374.988 269.418 375.499C269.129 376.006 268.732 376.407 268.224 376.702C267.717 376.993 267.141 377.139 266.494 377.139Z" fill="#181818"/>
<rect x="293.5" y="340.5" width="63" height="63" stroke="#D5D4DF"/>
<path d="M317.288 377V376.105L320.649 372.426C321.043 371.995 321.368 371.621 321.623 371.303C321.878 370.981 322.067 370.679 322.19 370.398C322.316 370.113 322.379 369.814 322.379 369.503C322.379 369.145 322.293 368.835 322.12 368.573C321.951 368.311 321.719 368.109 321.424 367.967C321.129 367.824 320.798 367.753 320.43 367.753C320.039 367.753 319.697 367.834 319.406 367.996C319.117 368.156 318.894 368.379 318.735 368.668C318.579 368.956 318.501 369.294 318.501 369.682H317.328C317.328 369.085 317.465 368.562 317.74 368.111C318.015 367.66 318.39 367.309 318.864 367.057C319.341 366.805 319.876 366.679 320.47 366.679C321.066 366.679 321.595 366.805 322.056 367.057C322.516 367.309 322.878 367.648 323.139 368.076C323.401 368.504 323.532 368.979 323.532 369.503C323.532 369.877 323.464 370.244 323.328 370.602C323.196 370.956 322.964 371.352 322.632 371.79C322.304 372.224 321.848 372.754 321.265 373.381L318.978 375.827V375.906H323.711V377H317.288ZM329.594 377.139C329.176 377.133 328.759 377.053 328.341 376.901C327.923 376.748 327.542 376.491 327.197 376.13C326.853 375.765 326.576 375.273 326.367 374.653C326.158 374.03 326.054 373.248 326.054 372.307C326.054 371.405 326.138 370.607 326.308 369.911C326.477 369.211 326.722 368.623 327.043 368.146C327.365 367.665 327.753 367.3 328.207 367.052C328.664 366.803 329.179 366.679 329.753 366.679C330.323 366.679 330.83 366.793 331.274 367.022C331.722 367.247 332.086 367.562 332.368 367.967C332.65 368.371 332.832 368.837 332.915 369.364H331.702C331.589 368.906 331.37 368.527 331.045 368.225C330.721 367.924 330.29 367.773 329.753 367.773C328.964 367.773 328.343 368.116 327.888 368.802C327.438 369.488 327.211 370.451 327.207 371.69H327.287C327.473 371.409 327.693 371.168 327.948 370.969C328.207 370.767 328.492 370.612 328.803 370.502C329.115 370.393 329.445 370.338 329.793 370.338C330.376 370.338 330.91 370.484 331.393 370.776C331.877 371.064 332.265 371.463 332.557 371.974C332.848 372.481 332.994 373.062 332.994 373.719C332.994 374.348 332.853 374.925 332.572 375.449C332.29 375.969 331.894 376.384 331.384 376.692C330.876 376.997 330.28 377.146 329.594 377.139ZM329.594 376.045C330.011 376.045 330.386 375.941 330.717 375.732C331.052 375.523 331.316 375.243 331.508 374.892C331.703 374.541 331.801 374.15 331.801 373.719C331.801 373.298 331.707 372.915 331.518 372.57C331.332 372.222 331.075 371.946 330.747 371.74C330.422 371.535 330.051 371.432 329.634 371.432C329.319 371.432 329.025 371.495 328.754 371.621C328.482 371.743 328.243 371.912 328.038 372.128C327.835 372.343 327.676 372.59 327.56 372.869C327.444 373.144 327.386 373.434 327.386 373.739C327.386 374.143 327.481 374.521 327.67 374.872C327.862 375.223 328.124 375.507 328.455 375.722C328.79 375.938 329.17 376.045 329.594 376.045Z" fill="#181818"/>
<rect x="356.5" y="340.5" width="63" height="63" stroke="#D5D4DF"/>
<path d="M380.288 377V376.105L383.649 372.426C384.043 371.995 384.368 371.621 384.623 371.303C384.878 370.981 385.067 370.679 385.19 370.398C385.316 370.113 385.379 369.814 385.379 369.503C385.379 369.145 385.293 368.835 385.12 368.573C384.951 368.311 384.719 368.109 384.424 367.967C384.129 367.824 383.798 367.753 383.43 367.753C383.039 367.753 382.697 367.834 382.406 367.996C382.117 368.156 381.894 368.379 381.735 368.668C381.579 368.956 381.501 369.294 381.501 369.682H380.328C380.328 369.085 380.465 368.562 380.74 368.111C381.015 367.66 381.39 367.309 381.864 367.057C382.341 366.805 382.876 366.679 383.47 366.679C384.066 366.679 384.595 366.805 385.056 367.057C385.516 367.309 385.878 367.648 386.139 368.076C386.401 368.504 386.532 368.979 386.532 369.503C386.532 369.877 386.464 370.244 386.328 370.602C386.196 370.956 385.964 371.352 385.632 371.79C385.304 372.224 384.848 372.754 384.265 373.381L381.978 375.827V375.906H386.711V377H380.288ZM389.909 377L394.463 367.991V367.912H389.213V366.818H395.736V367.972L391.202 377H389.909Z" fill="#181818"/>
<rect x="419.5" y="340.5" width="63" height="63" stroke="#D5D4DF"/>
<path d="M443.288 377V376.105L446.649 372.426C447.043 371.995 447.368 371.621 447.623 371.303C447.878 370.981 448.067 370.679 448.19 370.398C448.316 370.113 448.379 369.814 448.379 369.503C448.379 369.145 448.293 368.835 448.12 368.573C447.951 368.311 447.719 368.109 447.424 367.967C447.129 367.824 446.798 367.753 446.43 367.753C446.039 367.753 445.697 367.834 445.406 367.996C445.117 368.156 444.894 368.379 444.735 368.668C444.579 368.956 444.501 369.294 444.501 369.682H443.328C443.328 369.085 443.465 368.562 443.74 368.111C444.015 367.66 444.39 367.309 444.864 367.057C445.341 366.805 445.876 366.679 446.47 366.679C447.066 366.679 447.595 366.805 448.056 367.057C448.516 367.309 448.878 367.648 449.139 368.076C449.401 368.504 449.532 368.979 449.532 369.503C449.532 369.877 449.464 370.244 449.328 370.602C449.196 370.956 448.964 371.352 448.632 371.79C448.304 372.224 447.848 372.754 447.265 373.381L444.978 375.827V375.906H449.711V377H443.288ZM455.534 377.139C454.851 377.139 454.248 377.018 453.724 376.776C453.204 376.531 452.798 376.195 452.506 375.767C452.215 375.336 452.071 374.846 452.074 374.295C452.071 373.865 452.155 373.467 452.327 373.102C452.5 372.734 452.735 372.428 453.033 372.183C453.335 371.934 453.671 371.777 454.043 371.71V371.651C453.555 371.525 453.168 371.251 452.879 370.83C452.591 370.406 452.448 369.924 452.452 369.384C452.448 368.866 452.579 368.404 452.844 367.996C453.11 367.589 453.474 367.267 453.938 367.032C454.406 366.797 454.938 366.679 455.534 366.679C456.124 366.679 456.651 366.797 457.115 367.032C457.579 367.267 457.944 367.589 458.209 367.996C458.477 368.404 458.613 368.866 458.616 369.384C458.613 369.924 458.466 370.406 458.174 370.83C457.886 371.251 457.503 371.525 457.026 371.651V371.71C457.393 371.777 457.725 371.934 458.02 372.183C458.315 372.428 458.55 372.734 458.726 373.102C458.902 373.467 458.991 373.865 458.994 374.295C458.991 374.846 458.842 375.336 458.547 375.767C458.255 376.195 457.849 376.531 457.329 376.776C456.812 377.018 456.214 377.139 455.534 377.139ZM455.534 376.045C455.995 376.045 456.393 375.971 456.727 375.822C457.062 375.673 457.321 375.462 457.503 375.19C457.685 374.919 457.778 374.6 457.781 374.236C457.778 373.851 457.679 373.512 457.483 373.217C457.287 372.922 457.021 372.69 456.683 372.521C456.348 372.352 455.965 372.267 455.534 372.267C455.1 372.267 454.712 372.352 454.371 372.521C454.033 372.69 453.766 372.922 453.57 373.217C453.378 373.512 453.284 373.851 453.287 374.236C453.284 374.6 453.371 374.919 453.55 375.19C453.733 375.462 453.993 375.673 454.331 375.822C454.669 375.971 455.07 376.045 455.534 376.045ZM455.534 371.213C455.899 371.213 456.222 371.14 456.504 370.994C456.789 370.848 457.012 370.645 457.175 370.383C457.337 370.121 457.42 369.814 457.423 369.463C457.42 369.118 457.339 368.818 457.18 368.563C457.021 368.305 456.8 368.106 456.518 367.967C456.237 367.824 455.909 367.753 455.534 367.753C455.153 367.753 454.82 367.824 454.535 367.967C454.25 368.106 454.029 368.305 453.874 368.563C453.718 368.818 453.642 369.118 453.645 369.463C453.642 369.814 453.719 370.121 453.879 370.383C454.041 370.645 454.265 370.848 454.55 370.994C454.835 371.14 455.163 371.213 455.534 371.213Z" fill="#181818"/>
<rect x="41.5" y="403.5" width="63" height="63" stroke="#D5D4DF"/>
<path d="M65.2878 440V439.105L68.6486 435.426C69.043 434.995 69.3678 434.621 69.623 434.303C69.8783 433.981 70.0672 433.679 70.1898 433.398C70.3158 433.113 70.3787 432.814 70.3787 432.503C70.3787 432.145 70.2926 431.835 70.1202 431.573C69.9512 431.311 69.7192 431.109 69.4242 430.967C69.1292 430.824 68.7978 430.753 68.4299 430.753C68.0388 430.753 67.6974 430.834 67.4057 430.996C67.1174 431.156 66.8936 431.379 66.7346 431.668C66.5788 431.956 66.5009 432.294 66.5009 432.682H65.3276C65.3276 432.085 65.4651 431.562 65.7402 431.111C66.0153 430.66 66.3899 430.309 66.8638 430.057C67.3411 429.805 67.8764 429.679 68.4696 429.679C69.0662 429.679 69.5949 429.805 70.0556 430.057C70.5163 430.309 70.8775 430.648 71.1394 431.076C71.4012 431.504 71.5321 431.979 71.5321 432.503C71.5321 432.877 71.4642 433.244 71.3283 433.602C71.1957 433.956 70.9637 434.352 70.6323 434.79C70.3042 435.224 69.8484 435.754 69.2651 436.381L66.9782 438.827V438.906H71.7111V440H65.2878ZM77.4545 429.679C77.8722 429.682 78.2898 429.762 78.7074 429.918C79.125 430.073 79.5062 430.332 79.8509 430.693C80.1955 431.051 80.4723 431.54 80.6811 432.16C80.8899 432.78 80.9943 433.557 80.9943 434.491C80.9943 435.396 80.9081 436.2 80.7358 436.903C80.5668 437.602 80.3215 438.192 80 438.673C79.6818 439.153 79.294 439.518 78.8366 439.766C78.3826 440.015 77.8688 440.139 77.2955 440.139C76.7254 440.139 76.2166 440.027 75.7692 439.801C75.325 439.572 74.9605 439.256 74.6754 438.852C74.3937 438.444 74.2131 437.972 74.1335 437.435H75.3466C75.456 437.902 75.6731 438.288 75.9979 438.593C76.326 438.895 76.7585 439.045 77.2955 439.045C78.081 439.045 78.7008 438.702 79.1548 438.016C79.6122 437.33 79.8409 436.361 79.8409 435.108H79.7614C79.5758 435.386 79.3554 435.627 79.1001 435.829C78.8449 436.031 78.5616 436.187 78.25 436.296C77.9384 436.406 77.607 436.46 77.2557 436.46C76.6723 436.46 76.1371 436.316 75.6499 436.028C75.166 435.736 74.7782 435.337 74.4865 434.83C74.1982 434.319 74.054 433.736 74.054 433.08C74.054 432.456 74.1932 431.886 74.4716 431.369C74.7533 430.849 75.1477 430.435 75.6548 430.126C76.1652 429.818 76.7652 429.669 77.4545 429.679ZM77.4545 430.773C77.0369 430.773 76.6607 430.877 76.326 431.086C75.9946 431.291 75.7311 431.57 75.5355 431.921C75.3433 432.269 75.2472 432.655 75.2472 433.08C75.2472 433.504 75.34 433.89 75.5256 434.238C75.7145 434.583 75.9714 434.858 76.2962 435.063C76.6243 435.265 76.9972 435.366 77.4148 435.366C77.7296 435.366 78.023 435.305 78.2947 435.183C78.5665 435.057 78.8035 434.886 79.0057 434.67C79.2112 434.452 79.3719 434.205 79.4879 433.93C79.6039 433.651 79.6619 433.361 79.6619 433.06C79.6619 432.662 79.5658 432.289 79.3736 431.941C79.1847 431.593 78.9228 431.311 78.5881 431.096C78.2566 430.88 77.8788 430.773 77.4545 430.773Z" fill="#181818"/>
<rect x="104.5" y="403.5" width="63" height="63" stroke="#D5D4DF"/>
<path d="M131.509 440.139C130.853 440.139 130.268 440.027 129.754 439.801C129.244 439.576 128.838 439.263 128.536 438.862C128.238 438.457 128.076 437.988 128.049 437.455H129.302C129.329 437.783 129.441 438.066 129.64 438.305C129.839 438.54 130.099 438.722 130.421 438.852C130.742 438.981 131.098 439.045 131.49 439.045C131.927 439.045 132.315 438.969 132.653 438.817C132.991 438.664 133.256 438.452 133.448 438.18C133.641 437.909 133.737 437.594 133.737 437.236C133.737 436.861 133.644 436.531 133.458 436.246C133.273 435.958 133.001 435.733 132.643 435.57C132.285 435.408 131.847 435.327 131.33 435.327H130.515V434.233H131.33C131.735 434.233 132.089 434.16 132.394 434.014C132.703 433.868 132.943 433.663 133.115 433.398C133.291 433.133 133.379 432.821 133.379 432.463C133.379 432.118 133.302 431.818 133.15 431.563C132.998 431.308 132.782 431.109 132.504 430.967C132.229 430.824 131.904 430.753 131.529 430.753C131.178 430.753 130.847 430.817 130.535 430.947C130.227 431.073 129.975 431.257 129.779 431.499C129.584 431.737 129.478 432.026 129.461 432.364H128.268C128.288 431.83 128.449 431.363 128.75 430.962C129.052 430.557 129.446 430.242 129.933 430.017C130.424 429.792 130.963 429.679 131.549 429.679C132.179 429.679 132.719 429.807 133.17 430.062C133.621 430.314 133.967 430.647 134.209 431.061C134.451 431.475 134.572 431.923 134.572 432.403C134.572 432.977 134.421 433.466 134.119 433.87C133.821 434.274 133.415 434.554 132.901 434.71V434.79C133.544 434.896 134.047 435.169 134.408 435.61C134.769 436.048 134.95 436.589 134.95 437.236C134.95 437.789 134.799 438.286 134.497 438.727C134.199 439.165 133.791 439.509 133.274 439.761C132.757 440.013 132.169 440.139 131.509 440.139ZM140.534 440.139C139.785 440.139 139.147 439.935 138.62 439.528C138.093 439.117 137.69 438.522 137.412 437.743C137.134 436.961 136.994 436.016 136.994 434.909C136.994 433.809 137.134 432.869 137.412 432.09C137.694 431.308 138.098 430.711 138.625 430.3C139.155 429.886 139.792 429.679 140.534 429.679C141.277 429.679 141.911 429.886 142.438 430.3C142.969 430.711 143.373 431.308 143.651 432.09C143.933 432.869 144.074 433.809 144.074 434.909C144.074 436.016 143.935 436.961 143.656 437.743C143.378 438.522 142.975 439.117 142.448 439.528C141.921 439.935 141.283 440.139 140.534 440.139ZM140.534 439.045C141.277 439.045 141.853 438.687 142.264 437.972C142.675 437.256 142.881 436.235 142.881 434.909C142.881 434.027 142.786 433.277 142.597 432.657C142.412 432.037 142.143 431.565 141.792 431.24C141.444 430.915 141.025 430.753 140.534 430.753C139.798 430.753 139.223 431.116 138.809 431.842C138.395 432.564 138.188 433.587 138.188 434.909C138.188 435.791 138.28 436.54 138.466 437.156C138.652 437.773 138.918 438.242 139.266 438.563C139.618 438.885 140.04 439.045 140.534 439.045Z" fill="#181818"/>
<rect x="167.5" y="403.5" width="63" height="63" stroke="#D5D4DF"/>
<path d="M194.509 440.139C193.853 440.139 193.268 440.027 192.754 439.801C192.244 439.576 191.838 439.263 191.536 438.862C191.238 438.457 191.076 437.988 191.049 437.455H192.302C192.329 437.783 192.441 438.066 192.64 438.305C192.839 438.54 193.099 438.722 193.421 438.852C193.742 438.981 194.098 439.045 194.49 439.045C194.927 439.045 195.315 438.969 195.653 438.817C195.991 438.664 196.256 438.452 196.448 438.18C196.641 437.909 196.737 437.594 196.737 437.236C196.737 436.861 196.644 436.531 196.458 436.246C196.273 435.958 196.001 435.733 195.643 435.57C195.285 435.408 194.847 435.327 194.33 435.327H193.515V434.233H194.33C194.735 434.233 195.089 434.16 195.394 434.014C195.703 433.868 195.943 433.663 196.115 433.398C196.291 433.133 196.379 432.821 196.379 432.463C196.379 432.118 196.302 431.818 196.15 431.563C195.998 431.308 195.782 431.109 195.504 430.967C195.229 430.824 194.904 430.753 194.529 430.753C194.178 430.753 193.847 430.817 193.535 430.947C193.227 431.073 192.975 431.257 192.779 431.499C192.584 431.737 192.478 432.026 192.461 432.364H191.268C191.288 431.83 191.449 431.363 191.75 430.962C192.052 430.557 192.446 430.242 192.933 430.017C193.424 429.792 193.963 429.679 194.549 429.679C195.179 429.679 195.719 429.807 196.17 430.062C196.621 430.314 196.967 430.647 197.209 431.061C197.451 431.475 197.572 431.923 197.572 432.403C197.572 432.977 197.421 433.466 197.119 433.87C196.821 434.274 196.415 434.554 195.901 434.71V434.79C196.544 434.896 197.047 435.169 197.408 435.61C197.769 436.048 197.95 436.589 197.95 437.236C197.95 437.789 197.799 438.286 197.497 438.727C197.199 439.165 196.791 439.509 196.274 439.761C195.757 440.013 195.169 440.139 194.509 440.139ZM204.906 429.818V440H203.673V431.111H203.614L201.128 432.761V431.509L203.673 429.818H204.906Z" fill="#181818"/>
<rect x="230.5" y="403.5" width="63" height="63" stroke="#D5D4DF"/>
<path d="M258.283 437.912V436.898L262.758 429.818H263.493V431.389H262.996L259.616 436.739V436.818H265.641V437.912H258.283ZM263.076 440V437.604V437.131V429.818H264.249V440H263.076Z" fill="#181818"/>
<rect x="293.5" y="403.5" width="63" height="63" stroke="#D5D4DF"/>
<path d="M324.962 440.139C324.379 440.139 323.853 440.023 323.386 439.791C322.919 439.559 322.544 439.241 322.263 438.837C321.981 438.432 321.827 437.972 321.8 437.455H322.993C323.04 437.915 323.249 438.296 323.62 438.598C323.994 438.896 324.442 439.045 324.962 439.045C325.38 439.045 325.751 438.948 326.076 438.752C326.404 438.557 326.661 438.288 326.846 437.947C327.035 437.602 327.13 437.213 327.13 436.778C327.13 436.334 327.032 435.938 326.836 435.59C326.644 435.239 326.379 434.962 326.041 434.76C325.703 434.558 325.317 434.455 324.883 434.452C324.571 434.448 324.251 434.496 323.923 434.596C323.595 434.692 323.325 434.816 323.113 434.969L321.959 434.83L322.576 429.818H327.866V430.912H323.61L323.252 433.915H323.312C323.52 433.749 323.782 433.612 324.097 433.502C324.412 433.393 324.74 433.338 325.081 433.338C325.705 433.338 326.26 433.487 326.747 433.786C327.237 434.08 327.622 434.485 327.9 434.999C328.182 435.512 328.323 436.099 328.323 436.759C328.323 437.408 328.177 437.988 327.885 438.499C327.597 439.006 327.199 439.407 326.692 439.702C326.185 439.993 325.608 440.139 324.962 440.139Z" fill="#181818"/>
<rect x="356.5" y="403.5" width="63" height="63" stroke="#D5D4DF"/>
<path d="M388.062 440.139C387.644 440.133 387.226 440.053 386.809 439.901C386.391 439.748 386.01 439.491 385.665 439.13C385.321 438.765 385.044 438.273 384.835 437.653C384.626 437.03 384.522 436.248 384.522 435.307C384.522 434.405 384.606 433.607 384.775 432.911C384.944 432.211 385.19 431.623 385.511 431.146C385.833 430.665 386.22 430.3 386.674 430.052C387.132 429.803 387.647 429.679 388.221 429.679C388.791 429.679 389.298 429.793 389.742 430.022C390.189 430.247 390.554 430.562 390.836 430.967C391.117 431.371 391.3 431.837 391.383 432.364H390.169C390.057 431.906 389.838 431.527 389.513 431.225C389.188 430.924 388.758 430.773 388.221 430.773C387.432 430.773 386.81 431.116 386.356 431.802C385.906 432.488 385.678 433.451 385.675 434.69H385.755C385.94 434.409 386.161 434.168 386.416 433.969C386.674 433.767 386.959 433.612 387.271 433.502C387.583 433.393 387.912 433.338 388.26 433.338C388.844 433.338 389.377 433.484 389.861 433.776C390.345 434.064 390.733 434.463 391.025 434.974C391.316 435.481 391.462 436.062 391.462 436.719C391.462 437.348 391.321 437.925 391.04 438.449C390.758 438.969 390.362 439.384 389.851 439.692C389.344 439.997 388.748 440.146 388.062 440.139ZM388.062 439.045C388.479 439.045 388.854 438.941 389.185 438.732C389.52 438.523 389.783 438.243 389.976 437.892C390.171 437.541 390.269 437.15 390.269 436.719C390.269 436.298 390.174 435.915 389.986 435.57C389.8 435.222 389.543 434.946 389.215 434.74C388.89 434.535 388.519 434.432 388.101 434.432C387.786 434.432 387.493 434.495 387.221 434.621C386.95 434.743 386.711 434.912 386.505 435.128C386.303 435.343 386.144 435.59 386.028 435.869C385.912 436.144 385.854 436.434 385.854 436.739C385.854 437.143 385.949 437.521 386.138 437.872C386.33 438.223 386.592 438.507 386.923 438.722C387.258 438.938 387.637 439.045 388.062 439.045Z" fill="#181818"/>
<rect x="419.5" y="403.5" width="63" height="63" stroke="#D5D4DF"/>
<path d="M448.377 440L452.931 430.991V430.912H447.681V429.818H454.204V430.972L449.669 440H448.377Z" fill="#181818"/>
</g>
</g>
<defs>
<filter id="filter0_ddd_81_549" x="0.982759" y="0" width="522.034" height="519.539" filterUnits="userSpaceOnUse" color-interpolation-filters="sRGB">
<feFlood flood-opacity="0" result="BackgroundImageFix"/>
<feColorMatrix in="SourceAlpha" type="matrix" values="0 0 0 0 0 0 0 0 0 0 0 0 0 0 0 0 0 0 127 0" result="hardAlpha"/>
<feOffset dy="2.76726"/>
<feGaussianBlur stdDeviation="1.1069"/>
<feColorMatrix type="matrix" values="0 0 0 0 0 0 0 0 0 0 0 0 0 0 0 0 0 0 0.0196802 0"/>
<feBlend mode="normal" in2="BackgroundImageFix" result="effect1_dropShadow_81_549"/>
<feColorMatrix in="SourceAlpha" type="matrix" values="0 0 0 0 0 0 0 0 0 0 0 0 0 0 0 0 0 0 127 0" result="hardAlpha"/>
<feOffset dy="6.6501"/>
<feGaussianBlur stdDeviation="2.66004"/>
<feColorMatrix type="matrix" values="0 0 0 0 0 0 0 0 0 0 0 0 0 0 0 0 0 0 0.0282725 0"/>
<feBlend mode="normal" in2="effect1_dropShadow_81_549" result="effect2_dropShadow_81_549"/>
<feColorMatrix in="SourceAlpha" type="matrix" values="0 0 0 0 0 0 0 0 0 0 0 0 0 0 0 0 0 0 127 0" result="hardAlpha"/>
<feOffset dy="12.5216"/>
<feGaussianBlur stdDeviation="5.00862"/>
<feColorMatrix type="matrix" values="0 0 0 0 0 0 0 0 0 0 0 0 0 0 0 0 0 0 0.035 0"/>
<feBlend mode="normal" in2="effect2_dropShadow_81_549" result="effect3_dropShadow_81_549"/>
<feBlend mode="normal" in="SourceGraphic" in2="effect3_dropShadow_81_549" result="shape"/>
</filter>
<clipPath id="clip0_81_549">
<rect width="442" height="379" fill="white" transform="translate(41 88)"/>
</clipPath>
</defs>
</svg>
