<svg width="163" height="30" viewBox="0 0 163 30" fill="none" xmlns="http://www.w3.org/2000/svg">
<path d="M32.3077 0.383789H2.69231C1.97826 0.383789 1.29346 0.661548 0.788559 1.15596C0.283653 1.65038 0 2.32095 0 3.02015V26.7474C0 27.4466 0.283653 28.1172 0.788559 28.6116C1.29346 29.106 1.97826 29.3838 2.69231 29.3838H4.94543C5.2002 29.3839 5.44977 29.3132 5.66512 29.1799C5.88048 29.0466 6.05279 28.8562 6.16202 28.6308C6.81662 27.2775 7.85011 26.1339 9.14231 25.3331C10.4345 24.5324 11.9323 24.1073 13.4615 24.1073C14.9908 24.1073 16.4886 24.5324 17.7808 25.3331C19.073 26.1339 20.1065 27.2775 20.7611 28.6308C20.8703 28.8562 21.0426 29.0466 21.258 29.1799C21.4733 29.3132 21.7229 29.3839 21.9776 29.3838H32.3077C33.0217 29.3838 33.7065 29.106 34.2114 28.6116C34.7163 28.1172 35 27.4466 35 26.7474V3.02015C35 2.32095 34.7163 1.65038 34.2114 1.15596C33.7065 0.661548 33.0217 0.383789 32.3077 0.383789ZM13.4615 21.4747C12.3966 21.4747 11.3555 21.1655 10.47 20.5861C9.58451 20.0067 8.89435 19.1832 8.4868 18.2198C8.07925 17.2563 7.97262 16.1961 8.18039 15.1733C8.38815 14.1505 8.90099 13.211 9.65404 12.4736C10.4071 11.7362 11.3665 11.234 12.4111 11.0306C13.4556 10.8271 14.5382 10.9315 15.5221 11.3306C16.5061 11.7297 17.347 12.4055 17.9387 13.2726C18.5304 14.1397 18.8462 15.1591 18.8462 16.202C18.8462 17.6004 18.2788 18.9415 17.269 19.9304C16.2592 20.9192 14.8896 21.4747 13.4615 21.4747ZM32.3077 26.7474H22.7887C22.2017 25.7567 21.4537 24.8663 20.5743 24.1111H28.2692C28.6263 24.1111 28.9687 23.9722 29.2211 23.725C29.4736 23.4778 29.6154 23.1425 29.6154 22.7929V6.9747C29.6154 6.62509 29.4736 6.28981 29.2211 6.0426C28.9687 5.7954 28.6263 5.65652 28.2692 5.65652H6.73077C6.37375 5.65652 6.03135 5.7954 5.77889 6.0426C5.52644 6.28981 5.38462 6.62509 5.38462 6.9747V22.7929C5.38446 23.0852 5.48357 23.3693 5.66633 23.6005C5.8491 23.8317 6.10516 23.9968 6.39423 24.0699C5.4943 24.8333 4.73056 25.7382 4.13438 26.7474H2.69231V3.02015H32.3077V26.7474Z" fill="#5077AF"/>
<path d="M55.5261 23.3619C54.5981 23.3557 53.7071 23.2057 52.8531 22.9119C52.0071 22.6102 51.2659 22.1852 50.6296 21.6369C49.9933 21.0806 49.5378 20.4175 49.263 19.6476L52.0177 18.6582C52.1275 18.9789 52.3536 19.2725 52.6958 19.5388C53.038 19.8051 53.4566 20.0199 53.9515 20.1832C54.4464 20.3466 54.9778 20.4302 55.5458 20.434C56.1298 20.4379 56.6744 20.3536 57.1796 20.181C57.6928 20.0004 58.1065 19.7512 58.4206 19.4333C58.7348 19.1074 58.8934 18.7285 58.8963 18.2965C58.8993 17.8565 58.7377 17.4954 58.4116 17.2132C58.0855 16.923 57.6671 16.6922 57.1562 16.5207C56.6454 16.3493 56.1182 16.2177 55.5748 16.1261C54.3841 15.9341 53.318 15.6429 52.3766 15.2525C51.4353 14.8622 50.6909 14.3251 50.1435 13.6414C49.604 12.9578 49.338 12.076 49.3453 10.996C49.3521 9.98002 49.6501 9.09401 50.2392 8.33796C50.8283 7.58191 51.6003 6.9951 52.5551 6.57752C53.5099 6.15994 54.5393 5.95488 55.6433 5.96231C56.5633 5.96851 57.4503 6.11849 58.3043 6.41225C59.1584 6.70601 59.9035 7.13104 60.5398 7.68734C61.1841 8.24369 61.6436 8.9108 61.9184 9.68867L59.1517 10.6661C59.0419 10.3453 58.8158 10.0518 58.4736 9.78547C58.1314 9.51916 57.7128 9.30833 57.2179 9.15299C56.7229 8.98966 56.1915 8.90607 55.6235 8.90225C55.0556 8.89042 54.515 8.97878 54.0017 9.16733C53.4965 9.34793 53.0828 9.59714 52.7606 9.91498C52.4385 10.2328 52.276 10.5997 52.2732 11.0157C52.2696 11.5517 52.4149 11.9567 52.709 12.2307C53.0112 12.5047 53.4138 12.7074 53.9169 12.8388C54.4201 12.9622 54.9794 13.078 55.5946 13.1861C56.7134 13.3697 57.7474 13.6727 58.6966 14.0951C59.6458 14.5175 60.406 15.0786 60.9773 15.7785C61.5487 16.4703 61.831 17.3163 61.8242 18.3162C61.8174 19.3322 61.5234 20.2223 60.9422 20.9864C60.3611 21.7425 59.5931 22.3293 58.6383 22.7469C57.6835 23.1644 56.6461 23.3695 55.5261 23.3619ZM75.2426 23.1827L71.8707 23.16L69.1665 18.4257L67.4731 20.4183L67.4548 23.1303L64.5269 23.1106L64.6481 5.11096L67.5761 5.13069L67.5037 15.8704L71.5075 11.1573L75.3355 11.1831L71.1865 16.0633L75.2426 23.1827ZM77.0762 11.1948L80.0041 11.2146L79.9233 23.2143L76.9953 23.1946L77.0762 11.1948ZM78.5746 9.65689C78.1426 9.65398 77.7795 9.51153 77.4854 9.22954C77.1914 8.93955 77.0458 8.57856 77.0487 8.14657C77.0516 7.72258 77.202 7.36759 77.4999 7.08159C77.7978 6.79559 78.1588 6.65402 78.5828 6.65687C79.0068 6.65973 79.3618 6.80613 79.6478 7.09606C79.9419 7.38605 80.0875 7.74304 80.0846 8.16703C80.0817 8.59902 79.9353 8.95804 79.6454 9.24409C79.3555 9.52215 78.9986 9.65974 78.5746 9.65689ZM82.8546 23.234L82.9758 5.23444L85.9038 5.25416L85.7825 23.2538L82.8546 23.234ZM88.6669 23.2732L88.7882 5.2736L91.7161 5.29332L91.5949 23.2929L88.6669 23.2732ZM100.525 23.6651C99.5971 23.6588 98.7061 23.5088 97.852 23.2151C97.006 22.9134 96.2649 22.4884 95.6286 21.9401C94.9923 21.3838 94.5368 20.7207 94.2619 19.9508L97.0167 18.9613C97.1265 19.2821 97.3525 19.5756 97.6948 19.8419C98.037 20.1082 98.4555 20.3231 98.9504 20.4864C99.4454 20.6497 99.9768 20.7333 100.545 20.7372C101.129 20.7411 101.673 20.6568 102.179 20.4842C102.692 20.3036 103.105 20.0544 103.42 19.7365C103.734 19.4106 103.892 19.0317 103.895 18.5997C103.898 18.1597 103.737 17.7986 103.411 17.5164C103.085 17.2262 102.666 16.9954 102.155 16.8239C101.644 16.6525 101.117 16.5209 100.574 16.4293C99.3831 16.2372 98.317 15.946 97.3756 15.5557C96.4342 15.1653 95.6898 14.6283 95.1424 13.9446C94.603 13.261 94.337 12.3791 94.3442 11.2992C94.3511 10.2832 94.6491 9.39718 95.2382 8.64113C95.8273 7.88508 96.5992 7.29827 97.5541 6.88069C98.5089 6.46312 99.5383 6.25805 100.642 6.26548C101.562 6.27168 102.449 6.42166 103.303 6.71542C104.157 7.00918 104.903 7.43421 105.539 7.99051C106.183 8.54686 106.643 9.21397 106.917 9.99184L104.151 10.9692C104.041 10.6485 103.815 10.355 103.473 10.0886C103.13 9.82233 102.712 9.6115 102.217 9.45616C101.722 9.29283 101.19 9.20924 100.622 9.20542C100.055 9.19359 99.5139 9.28195 99.0007 9.4705C98.4954 9.6511 98.0817 9.90032 97.7596 10.2182C97.4374 10.536 97.275 10.9029 97.2722 11.3189C97.2686 11.8549 97.4138 12.2599 97.708 12.5339C98.0102 12.8079 98.4128 13.0106 98.9159 13.142C99.4191 13.2654 99.9783 13.3812 100.594 13.4893C101.712 13.6729 102.746 13.9758 103.696 14.3982C104.645 14.8206 105.405 15.3818 105.976 16.0816C106.548 16.7735 106.83 17.6194 106.823 18.6194C106.816 19.6354 106.522 20.5254 105.941 21.2895C105.36 22.0456 104.592 22.6325 103.637 23.05C102.682 23.4676 101.645 23.6726 100.525 23.6651ZM112.062 29.4309L109.134 29.4112L109.255 11.4116L112.183 11.4314L112.173 12.9553C112.568 12.414 113.051 11.9772 113.622 11.645C114.2 11.3049 114.873 11.1375 115.641 11.1426C116.521 11.1486 117.34 11.3181 118.098 11.6512C118.855 11.9843 119.52 12.4448 120.092 13.0327C120.673 13.6126 121.12 14.2836 121.435 15.0458C121.758 15.808 121.916 16.625 121.91 17.497C121.905 18.369 121.735 19.1879 121.402 19.9537C121.077 20.7195 120.62 21.3924 120.032 21.9725C119.452 22.5446 118.781 22.9921 118.019 23.3149C117.257 23.6378 116.436 23.7963 115.556 23.7904C114.788 23.7852 114.117 23.6127 113.543 23.2728C112.978 22.925 112.501 22.4777 112.112 21.9311L112.062 29.4309ZM115.586 13.9623C114.978 13.9582 114.433 14.1146 113.951 14.4313C113.469 14.7401 113.09 15.1575 112.814 15.6837C112.539 16.2099 112.399 16.7929 112.395 17.4329C112.39 18.0729 112.522 18.6618 112.791 19.1996C113.059 19.7294 113.432 20.156 113.91 20.4792C114.388 20.7944 114.931 20.9541 115.539 20.9582C116.155 20.9623 116.72 20.8101 117.234 20.5016C117.748 20.193 118.159 19.7758 118.467 19.2499C118.774 18.7159 118.93 18.125 118.934 17.477C118.939 16.837 118.791 16.252 118.49 15.7219C118.19 15.1919 117.785 14.7692 117.275 14.4537C116.773 14.1303 116.21 13.9665 115.586 13.9623ZM132.928 11.5711L135.856 11.5908L135.775 23.5906L132.847 23.5708L132.725 22.082C132.393 22.6158 131.954 23.0488 131.408 23.3811C130.87 23.7055 130.233 23.8652 129.497 23.8603C128.609 23.8543 127.778 23.6807 127.004 23.3395C126.23 22.9983 125.55 22.5297 124.962 21.9337C124.382 21.3378 123.926 20.6507 123.595 19.8724C123.273 19.0942 123.114 18.2612 123.12 17.3732C123.126 16.5172 123.287 15.7143 123.605 14.9644C123.93 14.2146 124.378 13.5576 124.95 12.9934C125.522 12.4292 126.181 11.9897 126.927 11.6747C127.673 11.3597 128.474 11.2051 129.33 11.2109C130.122 11.2162 130.829 11.397 131.45 11.7532C132.08 12.1094 132.613 12.561 133.049 13.108L132.928 11.5711ZM129.444 21.0399C130.068 21.0441 130.621 20.8918 131.103 20.583C131.585 20.2743 131.964 19.8568 132.239 19.3307C132.515 18.7965 132.655 18.2094 132.659 17.5694C132.664 16.9215 132.532 16.3326 132.263 15.8027C131.995 15.2649 131.618 14.8384 131.132 14.5231C130.654 14.2079 130.107 14.0482 129.491 14.044C128.875 14.0399 128.31 14.1961 127.796 14.5126C127.29 14.8212 126.883 15.2385 126.575 15.7644C126.276 16.2904 126.124 16.8774 126.119 17.5254C126.115 18.1734 126.263 18.7624 126.563 19.2924C126.864 19.8224 127.265 20.2452 127.767 20.5606C128.277 20.876 128.836 21.0358 129.444 21.0399ZM145.396 20.0433L148.026 21.4891C147.469 22.2373 146.773 22.8366 145.938 23.287C145.103 23.7374 144.193 23.9593 143.209 23.9527C142.105 23.9452 141.099 23.6544 140.191 23.0803C139.291 22.5062 138.572 21.7414 138.034 20.7857C137.505 19.8221 137.244 18.7604 137.252 17.6004C137.258 16.7204 137.419 15.9015 137.736 15.1436C138.054 14.3777 138.486 13.7086 139.034 13.1363C139.59 12.556 140.233 12.1043 140.963 11.7813C141.693 11.4582 142.47 11.2994 143.294 11.305C144.278 11.3116 145.185 11.5457 146.014 12.0073C146.843 12.4689 147.531 13.0855 148.077 13.8572L145.428 15.2554C145.15 14.9335 144.82 14.6833 144.437 14.5047C144.062 14.3262 143.675 14.2356 143.275 14.2329C142.699 14.229 142.178 14.3855 141.712 14.7024C141.245 15.0112 140.875 15.4247 140.599 15.9429C140.324 16.4531 140.184 17.0121 140.18 17.6201C140.176 18.2201 140.308 18.781 140.576 19.3028C140.845 19.8166 141.21 20.2311 141.672 20.5462C142.134 20.8614 142.653 21.0208 143.229 21.0247C143.645 21.0275 144.042 20.9422 144.419 20.7687C144.796 20.5873 145.122 20.3455 145.396 20.0433ZM155.068 24.0326C153.964 24.0251 152.958 23.7343 152.05 23.1602C151.15 22.5861 150.431 21.8173 149.894 20.8536C149.364 19.89 149.103 18.8283 149.111 17.6683C149.117 16.7963 149.278 15.9814 149.596 15.2235C149.913 14.4576 150.345 13.7885 150.893 13.2162C151.449 12.6359 152.092 12.1842 152.822 11.8612C153.552 11.5381 154.33 11.3793 155.154 11.3848C156.09 11.3912 156.944 11.5969 157.717 12.0021C158.499 12.3994 159.159 12.9439 159.698 13.6355C160.238 14.3272 160.629 15.1138 160.871 15.9955C161.113 16.8771 161.162 17.7975 161.02 18.7565L152.248 18.6974C152.357 19.1462 152.538 19.5514 152.792 19.9131C153.046 20.2668 153.368 20.553 153.758 20.7717C154.149 20.9823 154.592 21.0933 155.088 21.1046C155.6 21.1161 156.065 20.9992 156.482 20.754C156.908 20.5009 157.262 20.1593 157.545 19.7292L160.529 20.4453C160.033 21.506 159.3 22.373 158.327 23.0465C157.355 23.712 156.268 24.0406 155.068 24.0326ZM152.167 16.5008L158.071 16.5406C157.986 16.06 157.801 15.6268 157.516 15.2409C157.238 14.847 156.892 14.5326 156.478 14.2978C156.064 14.063 155.616 13.944 155.136 13.9408C154.656 13.9376 154.212 14.0506 153.802 14.2798C153.393 14.5011 153.042 14.8067 152.752 15.1968C152.469 15.5789 152.274 16.0136 152.167 16.5008Z" fill="#5077AF"/>
</svg>
