<svg width="23" height="20" viewBox="0 0 23 20" fill="none" xmlns="http://www.w3.org/2000/svg">
<path d="M16.3563 0.461914C14.2603 0.461914 12.4693 1.95591 11.4853 2.98591C10.5013 1.95591 8.7143 0.461914 6.6193 0.461914C3.0083 0.461914 0.487305 2.97891 0.487305 6.58191C0.487305 10.5519 3.6183 13.1179 6.6473 15.5999C8.0773 16.7729 9.5573 17.9849 10.6923 19.3289C10.8833 19.5539 11.1633 19.6839 11.4573 19.6839H11.5153C11.8103 19.6839 12.0893 19.5529 12.2793 19.3289C13.4163 17.9849 14.8953 16.7719 16.3263 15.5999C19.3543 13.1189 22.4873 10.5529 22.4873 6.58191C22.4873 2.97891 19.9663 0.461914 16.3563 0.461914Z" fill="#FC1010"/>
</svg>
